<svg width="225" height="196" viewBox="0 0 225 196" fill="none" xmlns="http://www.w3.org/2000/svg">
<path d="M109.093 190.679C60.9817 190.679 21.9805 151.678 21.9805 103.567C21.9805 55.4559 60.9817 16.4547 109.093 16.4547C157.204 16.4547 196.205 55.4559 196.205 103.567C196.205 151.678 157.204 190.679 109.093 190.679Z" fill="#E7C0FF"/>
<path d="M180.583 156.178C179.668 158.704 178.565 161.298 177.302 163.878C176.414 165.694 175.441 167.502 174.399 169.278C172.45 172.589 170.257 175.79 167.87 178.696C166.069 180.889 164.162 182.918 162.17 184.705C159.011 187.538 154.872 189.031 150.632 188.819C120.356 187.335 62.1902 173.895 39.6553 164.961C35.8135 163.44 32.6674 160.525 30.9636 156.759C29.6466 153.849 28.5809 150.663 27.7585 147.342C26.9354 144.036 26.3526 140.593 25.9935 137.151C25.7422 134.782 25.5994 132.414 25.5586 130.091C25.512 127.563 25.5848 125.083 25.7713 122.715L41.9426 117.348L169.801 144.986L180.583 156.178Z" fill="#FFBB94"/>
<path d="M177.302 163.878C174.749 169.078 171.533 174.232 167.87 178.696C126.782 177.797 69.4274 165.226 27.758 147.342C26.3703 141.762 25.6601 135.795 25.5581 130.091C69.6299 150.183 134.218 164.231 177.302 163.878Z" fill="white"/>
<path fill-rule="evenodd" clip-rule="evenodd" d="M151.441 190.077C151.152 190.077 150.861 190.069 150.571 190.055C120.614 188.586 62.4319 175.321 39.1992 166.111C34.9867 164.443 31.6613 161.303 29.8366 157.27C28.5269 154.375 27.4233 151.134 26.5572 147.64C25.2016 142.188 24.4287 136.126 24.3216 130.113C24.2743 127.562 24.3471 125.04 24.5372 122.618C24.5766 122.122 24.9095 121.697 25.3815 121.54L41.5528 116.174C41.7626 116.104 41.9877 116.092 42.204 116.139L170.062 143.777C170.302 143.828 170.521 143.951 170.691 144.128L181.474 155.32C181.801 155.66 181.907 156.156 181.747 156.6C180.81 159.186 179.688 161.818 178.414 164.423C175.713 169.922 172.399 175.128 168.827 179.481C166.932 181.788 164.97 183.855 162.995 185.626C159.776 188.513 155.702 190.077 151.441 190.077ZM26.9455 123.629C26.8056 125.719 26.7553 127.882 26.7961 130.068C26.8996 135.899 27.6477 141.769 28.9589 147.044C29.7893 150.394 30.8433 153.491 32.0911 156.25C33.65 159.695 36.4982 162.38 40.1105 163.811C63.1779 172.955 120.946 186.125 150.692 187.583C154.608 187.778 158.393 186.429 161.343 183.784C163.224 182.097 165.098 180.12 166.914 177.91C170.367 173.704 173.575 168.663 176.191 163.334C177.308 161.051 178.304 158.749 179.154 156.478L169.17 146.116L42.0117 118.629L26.9455 123.629Z" fill="#390075"/>
<g opacity="0.25">
<path d="M167.578 144.506L158.786 142.605L41.718 117.3L25.7711 122.715C25.5802 125.083 25.5001 127.561 25.538 130.086C25.57 132.409 25.7033 134.774 25.943 137.14C27.0181 137.373 28.1778 137.277 29.2727 136.793C32.8777 135.204 36.8214 131.256 41.015 129.695C44.0701 128.558 47.4916 129.663 49.3819 132.332C52.3903 136.582 55.3091 143.637 62.0027 145.351C68.3911 147.094 77.0617 139.925 85.3003 141.344C94.4844 143.329 93.638 152.189 104.183 154.469C110.911 156.285 117.657 149.785 125.97 150.859C134.437 151.9 137.553 159.873 144.281 161.69C150.013 163.583 154.757 155.128 160.673 154.656C160.681 154.655 160.69 154.655 160.698 154.654C161.85 154.569 162.645 155.815 162.138 156.872C162.096 156.96 162.053 157.049 162.01 157.138C161.129 158.954 160.165 160.764 159.132 162.541C157.202 165.857 155.031 169.063 152.672 171.974C150.89 174.172 149.004 176.206 147.037 177.998C143.915 180.839 139.834 182.344 135.657 182.146C108.809 180.899 59.7264 170.039 34.0293 161.424C35.5292 162.911 37.3233 164.093 39.3112 164.887C61.4812 173.741 118.735 186.985 148.554 188.37C152.731 188.567 156.812 187.062 159.933 184.222C161.901 182.43 163.786 180.396 165.568 178.198C167.928 175.287 170.099 172.081 172.029 168.766C173.062 166.988 174.026 165.178 174.907 163.361C176.16 160.778 177.254 158.183 178.164 155.655L167.578 144.506Z" fill="#390075"/>
</g>
<path d="M180.505 162.231C178.836 164.214 175.743 164.117 174.234 162.011C171.698 158.482 171.651 152.559 167.683 150.015C166.622 149.334 165.384 149.005 164.126 149.098C158.122 149.551 153.333 157.999 147.508 156.082C140.672 154.243 137.482 146.254 128.885 145.184C120.442 144.083 113.615 150.565 106.779 148.725C96.0665 146.409 96.8969 137.546 87.5671 135.529C85.6003 135.188 83.6146 135.323 81.6362 135.706C75.2012 136.948 68.8958 140.815 63.9286 139.463C57.1272 137.728 54.1421 130.656 51.0739 126.393C49.1457 123.716 45.6689 122.6 42.5716 123.727C38.3197 125.275 34.3286 129.212 30.674 130.792C27.7537 132.052 24.3884 130.623 23.2302 127.664C22.0617 124.684 22.01 120.422 22.8594 115.875C24.6105 106.519 31.3136 98.752 40.4591 96.1318C40.5247 96.1133 40.5903 96.0949 40.6558 96.0764C43.5768 95.2649 46.6574 95.2183 49.617 95.8834L147.821 117.986L165.543 121.976C168.81 122.711 171.985 123.853 174.915 125.478C176.902 126.576 178.717 127.833 180.349 129.268C184.768 133.156 186.951 139.003 186.39 144.864C185.711 151.955 183.31 158.895 180.505 162.231Z" fill="#FC3DAB"/>
<g opacity="0.6">
<path d="M26.1905 129.027C25.0228 126.047 24.9711 121.786 25.8198 117.238C27.5709 107.883 34.274 100.116 43.4202 97.4954C43.4858 97.477 43.5511 97.4585 43.6162 97.4401C46.5372 96.6278 49.6185 96.582 52.5781 97.247L150.782 119.349L168.504 123.34C170.452 123.778 172.366 124.365 174.216 125.108C171.482 123.681 168.553 122.653 165.543 121.976L147.821 117.986L49.617 95.8834C46.6574 95.2183 43.5768 95.2649 40.6558 96.0764C40.5903 96.0949 40.5247 96.1133 40.4591 96.1318C31.3136 98.752 24.6105 106.519 22.8594 115.875C22.01 120.422 22.0617 124.684 23.2302 127.664C24.0023 129.637 25.7571 130.924 27.7057 131.193C27.0581 130.618 26.5285 129.89 26.1905 129.027Z" fill="white"/>
</g>
<g opacity="0.25">
<path d="M178.609 159.264C177.001 161.1 173.986 160.98 172.496 159C169.992 155.684 169.891 150.155 166.001 147.744C164.961 147.098 163.751 146.78 162.527 146.855C156.681 147.221 152.094 155.062 146.4 153.218C139.721 151.438 136.539 143.953 128.152 142.874C119.915 141.767 113.323 147.752 106.645 145.972C96.1853 143.711 96.9123 135.448 87.8018 133.478C85.8831 133.141 83.9491 133.248 82.0253 133.587C81.1045 133.401 80.1561 133.345 79.1895 133.456C84.5005 130.697 91.626 131.455 96.3106 135.274C97.9103 136.58 99.2266 138.188 100.883 139.429C104.232 141.937 108.915 142.69 112.863 141.355C115.203 140.563 117.243 139.111 119.599 138.361C121.48 137.76 123.52 137.622 125.335 136.869C127.154 136.117 128.795 134.457 128.556 132.556C128.368 131.057 127.07 129.874 125.681 129.142C124.29 128.407 122.742 127.986 121.383 127.197C120.012 126.401 118.892 125.226 118.139 123.874C118.135 123.874 118.136 123.871 118.133 123.867C117.436 123.204 116.79 122.485 116.421 121.624C115.979 120.582 116.045 119.265 116.884 118.503C118.001 117.489 119.81 117.86 121.324 118.224C127.121 119.608 133.175 119.913 139.048 119.115C141.504 118.78 143.931 118.254 146.35 117.668L163.655 121.557C166.845 122.273 169.949 123.369 172.819 124.912C174.765 125.956 176.546 127.146 178.15 128.5C182.491 132.17 184.673 137.647 184.18 143.112C183.585 149.723 181.31 156.177 178.609 159.264Z" fill="#390075"/>
</g>
<path fill-rule="evenodd" clip-rule="evenodd" d="M177.45 164.895C177.382 164.895 177.314 164.893 177.246 164.89C175.633 164.829 174.168 164.043 173.227 162.734C172.122 161.195 171.466 159.305 170.831 157.477C169.919 154.848 169.057 152.366 167.014 151.055C166.162 150.509 165.2 150.259 164.219 150.332C161.904 150.506 159.604 152.191 157.379 153.822C154.235 156.126 150.984 158.508 147.154 157.268C143.85 156.37 141.352 154.177 138.936 152.057C135.949 149.435 133.128 146.959 128.731 146.412C124.84 145.905 121.237 147.152 117.754 148.359C113.92 149.687 110.301 150.942 106.487 149.928C100.55 148.636 97.8486 145.388 95.4645 142.521C93.2843 139.898 91.3998 137.631 87.3308 136.744C83.3819 136.071 79.2269 137.492 75.2067 138.868C71.064 140.284 67.1516 141.621 63.6041 140.657C57.7395 139.16 54.5234 134.06 51.9389 129.962C51.2899 128.933 50.6766 127.961 50.0691 127.117C48.4563 124.877 45.5469 123.959 42.9937 124.89C40.8172 125.682 38.6435 127.193 36.5413 128.654C34.6852 129.944 32.9326 131.163 31.1639 131.927C29.4507 132.667 27.5589 132.68 25.8354 131.961C24.0988 131.236 22.7636 129.871 22.076 128.114C20.8704 125.032 20.7174 120.605 21.644 115.647C23.5219 105.604 30.6009 97.6702 40.1179 94.9414L40.3218 94.8832C43.3915 94.0302 46.6986 93.9588 49.8869 94.6763L165.814 120.767C169.337 121.561 172.601 122.78 175.515 124.394C177.605 125.55 179.507 126.878 181.166 128.337C185.816 132.428 188.229 138.65 187.622 144.981C186.929 152.208 184.45 159.46 181.451 163.028C180.448 164.221 178.999 164.895 177.45 164.895ZM164.557 147.845C165.892 147.845 167.194 148.23 168.351 148.972C171.115 150.745 172.159 153.755 173.17 156.665C173.772 158.403 174.342 160.043 175.237 161.29C175.729 161.974 176.495 162.385 177.341 162.418C178.203 162.453 179.004 162.092 179.557 161.435C182.258 158.221 184.51 151.514 185.159 144.745C185.69 139.202 183.587 133.763 179.532 130.196C178.006 128.853 176.251 127.629 174.316 126.558C171.608 125.059 168.564 123.923 165.271 123.182L49.3435 97.0903C46.5522 96.4624 43.6625 96.5236 40.9855 97.2681L40.8033 97.319C32.1896 99.7892 25.7815 106.985 24.0763 116.101C23.2335 120.61 23.3413 124.556 24.3808 127.212C24.8215 128.337 25.6759 129.213 26.7875 129.676C27.8853 130.134 29.0915 130.126 30.1827 129.656C31.7234 128.99 33.3777 127.84 35.1288 126.623C37.3608 125.071 39.6684 123.467 42.1466 122.564C45.7378 121.257 49.8207 122.535 52.0781 125.671C52.73 126.577 53.3623 127.58 54.0325 128.643C56.5048 132.563 59.3063 137.006 64.2342 138.264C67.0693 139.035 70.6328 137.816 74.4054 136.526C78.5276 135.116 83.1983 133.518 87.7773 134.31C87.7943 134.313 87.8113 134.317 87.8283 134.32C92.7489 135.383 95.0973 138.208 97.3679 140.939C99.7069 143.751 101.915 146.408 107.04 147.516C107.06 147.52 107.08 147.525 107.1 147.53C110.189 148.361 113.471 147.224 116.944 146.021C120.523 144.78 124.579 143.375 129.045 143.957C134.188 144.597 137.578 147.572 140.569 150.196C142.881 152.226 145.066 154.144 147.83 154.887C147.851 154.893 147.873 154.9 147.894 154.906C150.528 155.774 153.026 153.944 155.916 151.826C158.422 149.989 161.013 148.091 164.033 147.865C164.208 147.851 164.382 147.845 164.557 147.845Z" fill="#390075"/>
<path d="M180.331 101.106C179.607 103.01 178.726 104.962 177.71 106.901C176.996 108.265 176.209 109.622 175.365 110.953C173.785 113.435 171.997 115.828 170.042 117.994C168.565 119.628 166.997 121.136 165.352 122.458C162.744 124.554 159.286 125.612 155.711 125.373C130.186 123.683 80.9524 112.385 61.8091 105.174C58.5457 103.946 55.8417 101.671 54.3375 98.776C53.1742 96.5382 52.2178 94.0958 51.4631 91.555C50.7092 89.0259 50.1541 86.3962 49.7884 83.7724C49.5328 81.9666 49.3689 80.163 49.2916 78.3958C49.205 76.4727 49.221 74.5875 49.3339 72.7897L62.8529 69.0084L171.042 92.3941L180.331 101.106Z" fill="#FFBB94"/>
<path d="M177.71 106.901C175.657 110.808 173.045 114.668 170.042 117.994C135.423 116.55 86.888 105.927 51.4635 91.555C50.1923 87.2856 49.4828 82.735 49.292 78.3958C86.7795 94.4913 141.433 106.371 177.71 106.901Z" fill="white"/>
<path fill-rule="evenodd" clip-rule="evenodd" d="M156.722 126.398C156.365 126.398 156.005 126.385 155.644 126.361C130.402 124.69 81.1856 113.53 61.4595 106.1C57.907 104.764 55.0653 102.325 53.4584 99.2327C52.2995 97.0037 51.3095 94.5161 50.5133 91.8369C49.2692 87.6571 48.5036 83.0236 48.3018 78.4388C48.2144 76.4939 48.229 74.5722 48.3455 72.7278C48.3717 72.3075 48.6616 71.9499 49.0667 71.8362L62.5857 68.0549C62.7409 68.0112 62.904 68.0068 63.0614 68.0411L171.251 91.4268C171.426 91.4647 171.588 91.5492 171.719 91.6723L181.007 100.384C181.3 100.658 181.398 101.082 181.255 101.457C180.513 103.411 179.615 105.397 178.586 107.361C176.41 111.502 173.709 115.408 170.776 118.657C169.22 120.379 167.604 121.918 165.972 123.23C163.407 125.29 160.157 126.398 156.722 126.398ZM50.2824 73.5524C50.2081 75.1106 50.2067 76.7219 50.2802 78.3506C50.4747 82.7766 51.2119 87.2448 52.4116 91.2731C53.1714 93.8314 54.1147 96.2024 55.2154 98.32C56.5965 100.977 59.0623 103.083 62.1567 104.247C81.7633 111.633 130.684 122.725 155.776 124.386C159.108 124.608 162.288 123.65 164.731 121.687C166.282 120.44 167.821 118.975 169.306 117.33C172.129 114.202 174.733 110.436 176.833 106.441C177.717 104.754 178.5 103.052 179.165 101.371L170.565 93.304L62.8829 70.0283L50.2824 73.5524Z" fill="#390075"/>
<g opacity="0.25">
<path d="M169.162 91.9884L161.723 90.38L62.6637 68.9676L49.334 72.7897C49.2167 74.5868 49.1956 76.4705 49.2743 78.3914C49.3442 80.1579 49.5001 81.9593 49.7463 83.7636C50.6554 83.9603 51.6308 83.9086 52.5435 83.5611C55.5505 82.4189 58.7986 79.4899 62.3009 78.3812C64.8526 77.5726 67.7547 78.4766 69.3966 80.541C72.0088 83.8284 74.5976 89.2473 80.2663 90.675C85.6786 92.1188 92.8479 86.8281 99.8125 88.0599C107.584 89.7397 107.035 96.4617 115.958 98.3906C121.658 99.8963 127.218 95.0784 134.24 96.0487C141.389 96.9978 144.16 103.118 149.86 104.624C154.723 106.17 158.562 99.8285 163.535 99.5794C163.542 99.5789 163.549 99.5787 163.556 99.5787C164.525 99.535 165.217 100.498 164.81 101.291C164.776 101.358 164.741 101.424 164.707 101.491C163.999 102.857 163.221 104.215 162.384 105.547C160.82 108.033 159.051 110.43 157.117 112.601C155.657 114.239 154.108 115.751 152.483 117.077C149.908 119.18 146.498 120.249 142.977 120.022C120.343 118.576 78.8065 109.407 57.0059 102.38C58.2967 103.538 59.8293 104.471 61.5186 105.111C80.353 112.255 128.815 123.388 153.953 124.993C157.475 125.221 160.885 124.152 163.46 122.049C165.084 120.723 166.634 119.211 168.094 117.573C170.027 115.403 171.796 113.004 173.36 110.519C174.197 109.187 174.975 107.828 175.683 106.463C176.691 104.522 177.565 102.568 178.284 100.663L169.162 91.9884Z" fill="#390075"/>
</g>
<path d="M180.375 105.708C179.01 107.185 176.402 107.052 175.09 105.426C172.888 102.693 172.741 98.1866 169.352 96.1776C168.444 95.6415 167.396 95.3676 166.34 95.4178C161.291 95.6502 157.415 101.985 152.473 100.421C146.682 98.8947 143.849 92.759 136.59 91.7866C129.458 90.7952 123.83 95.597 118.036 94.0702C108.972 92.1107 109.506 85.3865 101.614 83.6805C97.9243 83.0279 94.1852 84.1467 90.6705 85.16C87.4458 86.0902 84.4104 86.9316 81.78 86.233C76.0188 84.7885 73.3738 79.3558 70.7121 76.0567C69.0367 73.9836 66.0909 73.0716 63.5013 73.8722C59.9473 74.9706 56.6613 77.888 53.6128 79.0229C51.1784 79.9291 48.3127 78.7782 47.2849 76.5047C46.2454 74.2189 46.1252 70.9773 46.7575 67.5326C48.0563 60.4529 53.556 54.6713 61.2097 52.8466C61.2665 52.8335 61.3214 52.8199 61.3743 52.8058C63.8175 52.2456 66.4136 52.2675 68.9187 52.8269L131.573 66.8697L167.032 74.8162C169.798 75.4361 172.491 76.3656 174.987 77.6535C176.679 78.5254 178.235 79.5132 179.634 80.6364C183.43 83.674 185.376 88.1604 185.012 92.6068C184.572 97.9878 182.677 103.221 180.375 105.708Z" fill="#FC3DAB"/>
<g opacity="0.6">
<path d="M107.504 86.8281C109.25 88.4809 110.62 90.4149 112.879 91.941C111.011 90.1993 109.664 88.2536 107.504 86.8281Z" fill="white"/>
<path d="M49.1344 77.99C48.0949 75.7034 47.974 72.4619 48.6063 69.0179C49.9058 61.9375 55.4055 56.1566 63.0592 54.3311C63.1155 54.318 63.1704 54.3047 63.2238 54.2911C65.667 53.7302 68.2631 53.752 70.7675 54.3122L133.422 68.3542L168.881 76.3008C171.648 76.9207 174.34 77.8501 176.837 79.138C178.113 79.7965 179.312 80.5206 180.424 81.3182C180.17 81.0844 179.908 80.8557 179.634 80.6364C178.235 79.5132 176.679 78.5254 174.987 77.6535C172.491 76.3656 169.798 75.4361 167.032 74.8162L131.573 66.8697L68.9187 52.8269C66.4136 52.2675 63.8175 52.2456 61.3743 52.8058C61.3214 52.8199 61.2665 52.8335 61.2097 52.8466C53.556 54.6713 48.0563 60.4529 46.7575 67.5326C46.1252 70.9773 46.2454 74.2189 47.2849 76.5047C47.7547 77.5442 48.6106 78.3448 49.6319 78.8255C49.4381 78.5677 49.2691 78.2894 49.1344 77.99Z" fill="white"/>
<path d="M72.5607 77.5413C72.018 76.8697 71.3406 76.3219 70.5859 75.9133C70.6275 75.9613 70.6719 76.0072 70.712 76.0568C72.7443 78.5764 74.7693 82.3388 78.1792 84.6203C75.8278 82.4022 74.1968 79.5693 72.5607 77.5413Z" fill="white"/>
<path d="M171.201 97.6622C171.108 97.6083 171.014 97.5573 170.919 97.5092C172.862 99.7805 173.291 103.194 175.089 105.426C175.506 105.942 176.054 106.307 176.65 106.518C174.721 103.764 174.433 99.5787 171.201 97.6622Z" fill="white"/>
</g>
<g opacity="0.25">
<path d="M178.885 102.773C177.576 104.099 175.033 103.939 173.731 102.44C171.546 99.9189 171.337 95.8127 168.006 93.934C167.113 93.4321 166.089 93.1684 165.06 93.199C160.144 93.3374 156.459 99.0513 151.619 97.5551C145.955 96.0815 143.106 90.4521 136.018 89.4622C129.054 88.4555 123.639 92.7481 117.972 91.2738C109.111 89.358 109.535 83.242 101.819 81.5739C98.215 80.9263 94.5874 81.8923 91.1776 82.7635C91.0188 82.7788 90.8593 82.7962 90.7041 82.8123C93.3491 81.4537 96.0392 80.0814 99.0068 79.4724C101.974 78.8663 105.307 79.114 107.841 80.7909C110.018 82.2368 111.39 84.5722 113.581 86.0006C116.324 87.7889 119.921 87.8669 123.132 87.2608C126.342 86.6548 129.377 85.4427 132.589 84.8599C134.297 84.5496 136.101 84.3981 137.568 83.5494C139.035 82.7015 140.01 80.8433 139.141 79.3981C138.688 78.6471 137.849 78.1772 137.036 77.7678C134.703 76.6009 132.235 75.6532 130.059 74.2408C127.882 72.8247 125.966 70.8251 125.448 68.4184L127.665 68.0046C127.664 68.0112 127.664 68.0141 127.665 68.0206C127.694 68.2144 128.004 68.288 128.155 68.1598C128.919 67.5238 129.815 67.0577 130.77 66.6956L165.437 74.4455C168.142 75.0501 170.779 75.9351 173.229 77.1443C174.892 77.9631 176.421 78.8853 177.801 79.9284C181.544 82.7496 183.505 86.8638 183.213 90.9081C182.863 95.8025 181.092 100.542 178.885 102.773Z" fill="#390075"/>
</g>
<path fill-rule="evenodd" clip-rule="evenodd" d="M177.911 107.726C177.857 107.726 177.802 107.725 177.747 107.723C176.39 107.677 175.141 107.065 174.319 106.045C173.359 104.854 172.771 103.402 172.202 101.997C171.384 99.9808 170.613 98.0767 168.848 97.0306C168.092 96.5826 167.24 96.3678 166.385 96.4056C164.411 96.4967 162.585 97.684 160.65 98.9413C158.061 100.625 155.381 102.366 152.199 101.371C149.432 100.636 147.297 98.9304 145.233 97.2812C142.766 95.3101 140.216 93.2719 136.457 92.7686C133.138 92.3053 130.113 93.1918 127.189 94.0491C124.003 94.983 120.994 95.8651 117.806 95.034C112.828 93.9515 110.505 91.4443 108.455 89.232C106.556 87.1822 104.916 85.4114 101.422 84.6516C98.0483 84.0586 94.5577 85.0675 91.1821 86.0429C87.7388 87.0372 84.4871 87.9769 81.5245 87.1902C76.6061 85.9555 73.8125 82.0314 71.5682 78.878C71.0022 78.0833 70.4683 77.3323 69.9409 76.6789C68.5088 74.9051 65.9804 74.1403 63.7929 74.817C61.9682 75.3815 60.1646 76.4909 58.42 77.5639C56.8815 78.5101 55.4275 79.4039 53.9568 79.951C51.0322 81.0378 47.634 79.6756 46.3826 76.9141C45.3016 74.53 45.0881 71.1355 45.7823 67.3549C47.1853 59.7121 53.0091 53.7834 60.9819 51.8829L61.1552 51.8421C63.7004 51.2557 66.4604 51.2623 69.1338 51.861L167.246 73.8503C170.214 74.5161 172.972 75.4988 175.443 76.7728C177.217 77.6877 178.836 78.7272 180.254 79.8636C184.247 83.0614 186.395 87.856 185.998 92.6891C185.547 98.202 183.579 103.704 181.102 106.38C180.307 107.24 179.151 107.726 177.911 107.726ZM166.583 94.4214C167.727 94.4214 168.853 94.7317 169.858 95.3276C172.197 96.7145 173.174 99.1256 174.037 101.253C174.576 102.584 175.085 103.839 175.861 104.803C176.322 105.375 177.034 105.718 177.816 105.744C178.546 105.771 179.21 105.51 179.65 105.035C181.813 102.696 183.613 97.5529 184.025 92.5274C184.367 88.3513 182.495 84.1949 179.016 81.4086C177.701 80.3553 176.193 79.3872 174.535 78.5327C172.214 77.3359 169.616 76.4108 166.813 75.7829L68.7011 53.7936C66.314 53.2582 63.8577 53.2516 61.5967 53.7724L61.4408 53.8089C54.2431 55.5251 48.9889 60.8529 47.7294 67.7125C47.1081 71.099 47.2705 74.0769 48.1854 76.0968C49.0027 77.8997 51.3301 78.8146 53.267 78.0949C54.5563 77.6156 55.9287 76.7714 57.3827 75.8776C59.2314 74.7398 61.1443 73.5633 63.2072 72.9252C66.1516 72.0147 69.5534 73.0469 71.4808 75.4347C72.0468 76.1347 72.5982 76.9098 73.1817 77.73C75.3444 80.7683 77.7956 84.2123 82.0206 85.2729C84.4637 85.9234 87.4605 85.0573 90.6321 84.1402C94.0638 83.1488 97.9536 82.0249 101.786 82.7052C101.798 82.7072 101.81 82.7096 101.822 82.7125C105.939 83.6019 107.956 85.7799 109.907 87.8858C111.941 90.0814 113.863 92.1552 118.246 93.1029C118.261 93.1063 118.275 93.1097 118.289 93.1131C120.95 93.8146 123.71 93.0053 126.632 92.1487C129.611 91.2753 132.988 90.2853 136.725 90.8069C141.023 91.3823 143.917 93.6944 146.469 95.734C148.466 97.33 150.352 98.8372 152.726 99.4629C152.742 99.4668 152.758 99.4711 152.773 99.476C155.075 100.206 157.158 98.8503 159.571 97.2812C161.642 95.9351 163.783 94.543 166.294 94.4279C166.391 94.4231 166.487 94.4209 166.583 94.4214Z" fill="#390075"/>
<path d="M133.047 34.7319L126.262 66.1195C126.032 67.1837 125.053 67.9129 123.947 67.8619C122.485 67.7949 121.045 67.6324 119.623 67.3789C117.725 67.0453 115.862 66.5439 114.035 65.8747C112.975 65.4901 112.354 64.3975 112.589 63.3121L119.4 31.8036C119.414 31.738 119.43 31.6768 119.452 31.6127C119.452 31.6132 119.452 31.612 119.452 31.6091C119.684 30.8559 120.306 30.271 121.096 30.1122C124.849 29.3502 129.218 30.2906 132.222 32.5065C132.914 33.0179 133.227 33.8993 133.047 34.7319Z" fill="#0096F0"/>
<path d="M131.607 41.3913L129.844 49.5461C124.803 48.7536 120.692 45.8354 117.402 41.0438L119.399 31.8036C119.413 31.738 119.43 31.6768 119.451 31.6127C121.958 36.2274 126.518 39.9329 131.607 41.3913Z" fill="#FFEB52"/>
<path d="M127.3 61.3161L126.262 66.1194C126.032 67.1837 125.053 67.9128 123.947 67.8618C122.485 67.7948 121.044 67.6324 119.623 67.3789C117.157 66.0247 114.915 64.1985 112.887 61.9331L114.891 52.6587C117.844 56.4866 122.333 59.6458 127.3 61.3161Z" fill="#FFEB52"/>
<g opacity="0.6">
<path d="M116.109 66.3227C115.049 65.9381 114.428 64.8455 114.662 63.7601L121.473 32.2523C121.487 32.186 121.504 32.1249 121.525 32.0607C121.525 32.0612 121.525 32.06 121.526 32.0571C121.757 31.3046 122.379 30.719 123.169 30.5609C124.714 30.2469 126.364 30.2258 127.979 30.4596C125.742 29.8106 123.312 29.6627 121.096 30.1122C120.306 30.271 119.684 30.8559 119.452 31.6091C119.452 31.612 119.452 31.6132 119.452 31.6128C119.43 31.6769 119.414 31.738 119.4 31.8036L112.589 63.3121C112.354 64.3975 112.975 65.4901 114.035 65.8748C115.826 66.5311 117.652 67.0228 119.513 67.3571C118.365 67.073 117.229 66.7336 116.109 66.3227Z" fill="white"/>
</g>
<g opacity="0.25">
<path d="M131.021 32.2472C129.274 30.783 126.943 29.9497 124.593 29.8659C125.537 30.2556 126.417 30.775 127.184 31.4175C127.764 31.9048 128.006 32.7709 127.826 33.6035L121.042 64.9911C120.811 66.0554 119.947 66.8093 118.996 66.7918C118.062 66.7748 117.14 66.7056 116.228 66.5842C117.182 66.8719 118.147 67.1058 119.127 67.2719C120.343 67.4802 121.578 67.5989 122.834 67.6208C123.786 67.6383 124.649 66.8851 124.88 65.8208L131.664 34.4332C131.844 33.6006 131.602 32.7345 131.021 32.2472Z" fill="#390075"/>
</g>
<path fill-rule="evenodd" clip-rule="evenodd" d="M124.059 68.8467C124.007 68.8467 123.955 68.8455 123.903 68.843C120.405 68.6806 116.972 67.9922 113.699 66.7983C112.182 66.2454 111.292 64.6567 111.628 63.1037L118.439 31.5966C118.705 30.3597 119.673 29.3989 120.902 29.1498C124.914 28.334 129.586 29.3421 132.803 31.7161C133.798 32.4503 134.27 33.7156 134.006 34.9387L127.221 66.3277C126.901 67.8086 125.585 68.8467 124.059 68.8467ZM113.547 63.5182C113.418 64.1177 113.772 64.7346 114.372 64.9532C117.458 66.0786 120.695 66.7276 123.993 66.8813C124.613 66.9039 125.174 66.5033 125.301 65.9125L132.087 34.5242C132.188 34.0551 132.012 33.5729 131.636 33.2961C128.846 31.2368 124.787 30.3648 121.293 31.0743C120.828 31.169 120.461 31.5369 120.358 32.0111L113.547 63.5182Z" fill="#390075"/>
<path d="M131.719 27.9078C130.892 28.7207 129.926 29.3486 128.835 29.7631C127.678 30.2009 126.373 29.8884 125.558 28.9567C124.829 28.1241 124.252 27.3316 123.818 26.5726C119.125 18.3886 130.452 14.2336 131.236 7.9166C136.42 15.3882 135.841 23.8577 131.719 27.9078Z" fill="#F9734D"/>
<path d="M127.004 28.4221C126.309 27.9742 126.201 27.0199 126.163 26.1939C126.106 24.9635 126.056 23.6859 126.534 22.551C127.121 21.1538 128.406 20.1959 129.633 19.308C129.909 21.0904 130.11 22.913 129.819 24.6926C129.527 26.4728 128.685 28.2269 127.224 29.2839C127.28 29.262 127.336 29.2399 127.392 29.2176" fill="#FEBD1C"/>
<path fill-rule="evenodd" clip-rule="evenodd" d="M127.783 31.0154C126.644 31.0154 125.53 30.5354 124.759 29.6554C123.993 28.7806 123.366 27.9203 122.897 27.0993C119.648 21.4343 123.188 17.4636 126.31 13.9605C128.167 11.8794 129.919 9.91333 130.184 7.7863C130.237 7.34997 130.555 6.9923 130.982 6.88741C131.408 6.78106 131.857 6.95078 132.107 7.31209C137.922 15.6935 136.63 24.5687 132.462 28.664C131.52 29.5899 130.426 30.2935 129.21 30.7546C128.746 30.9302 128.263 31.0154 127.783 31.0154ZM131.557 10.448C130.707 12.2174 129.284 13.8134 127.895 15.3722C124.865 18.7704 122.249 21.7045 124.738 26.0453C125.138 26.7446 125.682 27.489 126.355 28.2575C126.878 28.8556 127.704 29.0566 128.459 28.7711C129.397 28.4149 130.244 27.87 130.975 27.1518C130.975 27.1513 130.975 27.151 130.975 27.151C134.254 23.9292 135.173 17.0571 131.557 10.448Z" fill="#390075"/>
<path d="M157.656 44.2023L151.662 71.9273C151.46 72.8677 150.595 73.5116 149.617 73.4665C148.327 73.4075 147.054 73.264 145.799 73.0403C144.121 72.7451 142.476 72.3019 140.862 71.7109C139.926 71.3715 139.377 70.4063 139.585 69.4477L145.601 41.6156C145.613 41.558 145.628 41.5034 145.647 41.4466C145.647 41.4476 145.647 41.4466 145.648 41.4437C145.852 40.7786 146.401 40.2614 147.099 40.1216C150.414 39.4485 154.273 40.2796 156.927 42.2369C157.538 42.6886 157.815 43.4665 157.656 44.2023Z" fill="#47EF92"/>
<path d="M156.384 50.0844L154.827 57.2879C150.374 56.5879 146.743 54.01 143.836 49.7777L145.601 41.6156C145.613 41.5581 145.628 41.5034 145.647 41.4466C147.862 45.5237 151.889 48.7966 156.384 50.0844Z" fill="#FFEB52"/>
<path d="M152.581 67.6848L151.663 71.9273C151.461 72.8677 150.596 73.5116 149.618 73.4664C148.328 73.4074 147.055 73.2639 145.8 73.0403C143.62 71.8442 141.64 70.2307 139.849 68.2297L141.619 60.037C144.227 63.4191 148.194 66.209 152.581 67.6848Z" fill="#FFEB52"/>
<g opacity="0.6">
<path d="M142.694 72.1072C141.758 71.767 141.209 70.8018 141.416 69.8439L147.432 42.0118C147.445 41.9535 147.46 41.8996 147.478 41.8428C147.478 41.8433 147.478 41.8423 147.479 41.8399C147.683 41.1748 148.233 40.6577 148.931 40.5178C150.296 40.2403 151.752 40.222 153.18 40.4282C151.203 39.8549 149.057 39.7245 147.099 40.1215C146.401 40.2614 145.852 40.7786 145.648 41.4436C145.647 41.4465 145.647 41.4475 145.647 41.4465C145.628 41.5034 145.613 41.558 145.601 41.6156L139.585 69.4476C139.377 70.4063 139.926 71.3714 140.862 71.7109C142.444 72.2915 144.057 72.7256 145.701 73.0206C144.687 72.7693 143.684 72.4699 142.694 72.1072Z" fill="white"/>
</g>
<g opacity="0.25">
<path d="M155.868 42.0075C154.324 40.7146 152.265 39.9781 150.189 39.9038C151.023 40.2484 151.8 40.7073 152.478 41.2747C152.99 41.7052 153.205 42.4701 153.045 43.2058L147.052 70.9308C146.849 71.8712 146.086 72.5363 145.246 72.521C144.421 72.5059 143.605 72.445 142.8 72.3382C143.643 72.5924 144.495 72.7985 145.361 72.9457C146.435 73.13 147.526 73.2349 148.636 73.2538C149.476 73.2691 150.239 72.604 150.442 71.6636L156.435 43.9386C156.595 43.2029 156.381 42.438 155.868 42.0075Z" fill="#390075"/>
</g>
<path fill-rule="evenodd" clip-rule="evenodd" d="M149.717 74.3362C149.671 74.3362 149.625 74.3352 149.579 74.3333C146.49 74.1898 143.458 73.5823 140.566 72.5268C139.227 72.0387 138.44 70.6358 138.737 69.2634L144.752 41.4328C144.989 40.3401 145.843 39.4922 146.929 39.2715C150.472 38.5511 154.6 39.4412 157.441 41.5384C158.321 42.1867 158.737 43.3041 158.504 44.3851L152.511 72.1116C152.229 73.4191 151.065 74.3362 149.717 74.3362ZM140.432 69.6298C140.318 70.1594 140.631 70.7042 141.161 70.8973C143.887 71.8916 146.746 72.4649 149.659 72.6004C150.234 72.6237 150.702 72.266 150.815 71.7452L156.808 44.0187C156.897 43.6042 156.742 43.1788 156.411 42.9348C153.946 41.1152 150.36 40.3452 147.274 40.9717C146.863 41.0554 146.539 41.3803 146.449 41.7992L140.432 69.6298Z" fill="#390075"/>
<path d="M156.483 38.1744C155.753 38.8927 154.9 39.4477 153.935 39.8134C152.914 40.2002 151.761 39.9241 151.04 39.101C150.397 38.366 149.888 37.666 149.504 36.9951C145.359 29.7661 155.364 26.0962 156.056 20.5164C160.636 27.1161 160.124 34.5971 156.483 38.1744Z" fill="#F9734D"/>
<path d="M152.319 38.629C151.705 38.2327 151.609 37.3899 151.576 36.6607C151.525 35.5739 151.482 34.4455 151.903 33.4425C152.422 32.2085 153.557 31.3628 154.641 30.5783C154.885 32.1524 155.063 33.7623 154.805 35.335C154.547 36.9069 153.804 38.4563 152.513 39.3902C152.562 39.3707 152.612 39.3513 152.661 39.3319" fill="#FEBD1C"/>
<path fill-rule="evenodd" clip-rule="evenodd" d="M153.006 40.9192C152 40.9192 151.016 40.496 150.335 39.718C149.659 38.9452 149.105 38.1854 148.69 37.4606C145.82 32.4563 148.947 28.9488 151.706 25.8552C153.345 24.0166 154.893 22.28 155.126 20.4006C155.174 20.0153 155.455 19.6999 155.832 19.6066C156.21 19.5127 156.604 19.6627 156.826 19.9825C161.963 27.3849 160.821 35.225 157.14 38.8425C156.308 39.6605 155.341 40.2818 154.267 40.6898C153.857 40.8442 153.43 40.9192 153.006 40.9192ZM156.34 22.752C155.589 24.3153 154.332 25.7248 153.105 27.1015C150.429 30.1034 148.118 32.6952 150.316 36.5289C150.67 37.1474 151.15 37.8044 151.745 38.4841C152.207 39.0115 152.937 39.1892 153.603 38.9372C154.432 38.6225 155.18 38.141 155.826 37.5065C155.826 37.5065 155.826 37.5063 155.826 37.5058C158.723 34.6605 159.534 28.5905 156.34 22.752Z" fill="#390075"/>
<path d="M105.13 32.8488L99.1364 60.5738C98.9331 61.5135 98.0692 62.1575 97.0916 62.1123C95.8009 62.054 94.5283 61.9098 93.2732 61.6861C91.5953 61.3914 89.9498 60.9485 88.3366 60.3575C87.3998 60.0173 86.8513 59.0521 87.0589 58.0942L93.075 30.2621C93.0874 30.2039 93.102 30.15 93.1209 30.0931C93.1209 30.0936 93.1212 30.0927 93.1217 30.0902C93.3256 29.4252 93.8756 28.908 94.5734 28.7681C97.8885 28.095 101.747 28.9255 104.401 30.8828C105.013 31.3344 105.289 32.1131 105.13 32.8488Z" fill="#FC3C53"/>
<path d="M103.859 38.7309L102.301 45.9344C97.8492 45.2337 94.218 42.6565 91.3115 38.4243L93.0758 30.2621C93.0882 30.2039 93.1027 30.15 93.1217 30.0931C95.3361 34.1695 99.3637 37.4431 103.859 38.7309Z" fill="#FFEB52"/>
<path d="M100.054 56.3307L99.1373 60.5739C98.934 61.5135 98.0701 62.1575 97.0925 62.1123C95.8018 62.054 94.5292 61.9098 93.2741 61.6862C91.0946 60.4901 89.114 58.8766 87.3228 56.8763L89.0936 48.6836C91.7014 52.065 95.6677 54.8556 100.054 56.3307Z" fill="#FFEB52"/>
<g opacity="0.6">
<path d="M90.1679 60.753C89.2318 60.4136 88.6833 59.4484 88.8902 58.4898L94.9063 30.6577C94.9187 30.6002 94.934 30.5455 94.9522 30.4887C94.9522 30.4897 94.9525 30.4887 94.953 30.4858C95.1576 29.8207 95.7069 29.3035 96.4047 29.1637C97.7698 28.8869 99.226 28.8687 100.654 29.0748C98.6767 28.5015 96.5307 28.3704 94.5734 28.7681C93.8756 28.908 93.3264 29.4252 93.1217 30.0903C93.1212 30.0927 93.1209 30.0937 93.1209 30.0932C93.102 30.15 93.0874 30.2039 93.075 30.2622L87.0589 58.0943C86.8513 59.0521 87.3998 60.0173 88.3366 60.3575C89.918 60.9373 91.5315 61.3715 93.1748 61.6672C92.1609 61.4159 91.1571 61.1165 90.1679 60.753Z" fill="white"/>
</g>
<g opacity="0.25">
<path d="M103.342 30.6533C101.798 29.3603 99.739 28.6239 97.6629 28.5503C98.497 28.8949 99.2742 29.3531 99.9517 29.9205C100.465 30.351 100.679 31.1166 100.519 31.8523L94.5263 59.5766C94.3231 60.517 93.5597 61.1828 92.7198 61.1675C91.8947 61.1525 91.0796 61.0915 90.2744 60.9847C91.1172 61.2382 91.9695 61.445 92.8356 61.5915C93.9093 61.7758 95.0005 61.8806 96.1099 61.9003C96.9498 61.9156 97.7132 61.2498 97.9164 60.3094L103.909 32.5851C104.069 31.8494 103.855 31.0838 103.342 30.6533Z" fill="#390075"/>
</g>
<path fill-rule="evenodd" clip-rule="evenodd" d="M97.191 62.9828C97.1448 62.9828 97.0987 62.9816 97.0525 62.9792C93.9633 62.8357 90.9315 62.2282 88.0396 61.1734C86.7 60.6846 85.9133 59.2816 86.2105 57.9093L92.2259 30.0786C92.4627 28.9867 93.3171 28.1381 94.4025 27.9181C97.9485 27.1977 102.074 28.0878 104.915 30.185C105.794 30.8333 106.211 31.9507 105.978 33.0317L99.9845 60.7582C99.7019 62.0657 98.5393 62.9828 97.191 62.9828ZM96.9462 29.4026C96.1996 29.4026 95.4609 29.4733 94.7478 29.6183C94.3369 29.7013 94.0128 30.0262 93.9217 30.4458L87.9063 58.2764C87.7919 58.806 88.1044 59.3501 88.634 59.5432C91.3606 60.5382 94.2197 61.1108 97.1327 61.2462C97.7067 61.2717 98.1758 60.9126 98.2887 60.3918L104.282 32.6653C104.371 32.2501 104.216 31.8247 103.885 31.5807C101.989 30.1821 99.4302 29.4026 96.9462 29.4026Z" fill="#390075"/>
<path d="M103.958 26.821C103.228 27.5385 102.375 28.0936 101.41 28.46C100.388 28.8461 99.2359 28.57 98.5155 27.7469C97.8723 27.0119 97.3631 26.3119 96.9792 25.6417C92.8337 18.412 102.839 14.7428 103.531 9.16229C108.111 15.7619 107.599 23.2437 103.958 26.821Z" fill="#F9734D"/>
<path d="M99.7938 27.2748C99.1798 26.8793 99.0843 26.0365 99.0501 25.3066C98.9998 24.2205 98.9569 23.0914 99.3779 22.0891C99.8965 20.8551 101.031 20.0087 102.116 19.2242C102.359 20.799 102.538 22.4089 102.28 23.9808C102.022 25.5535 101.279 27.1029 99.9876 28.0368C100.037 28.0169 100.087 27.9972 100.136 27.9778" fill="#FEBD1C"/>
<path fill-rule="evenodd" clip-rule="evenodd" d="M100.482 29.5658C99.4752 29.5658 98.4911 29.1419 97.8108 28.3646C97.134 27.591 96.5804 26.832 96.1659 26.1065C93.2959 21.1028 96.4231 17.5954 99.1809 14.501C100.821 12.6625 102.369 10.9259 102.602 9.04723C102.65 8.66188 102.93 8.34574 103.308 8.25323C103.685 8.15853 104.08 8.30932 104.301 8.62837C109.438 16.0315 108.297 23.8709 104.614 27.489C103.783 28.3063 102.817 28.9277 101.743 29.3356C101.333 29.4908 100.906 29.5658 100.482 29.5658ZM103.815 11.3986C103.064 12.9611 101.808 14.3706 100.58 15.7481C97.904 18.7493 95.5934 21.3418 97.7918 25.1755C98.1451 25.7932 98.6251 26.451 99.2203 27.1299C99.6821 27.658 100.412 27.8365 101.079 27.5837C101.907 27.2691 102.656 26.7868 103.301 26.1531C103.301 26.1526 103.301 26.1524 103.302 26.1524C106.198 23.3071 107.009 17.2363 103.815 11.3986Z" fill="#390075"/>
<path d="M91.3368 98.0038C83.5819 96.9658 76.393 101.654 73.6628 108.762C72.6998 111.268 73.4108 114.138 75.4533 115.879C80.033 119.783 89.4334 121.934 95.218 119.236C98.0297 117.925 99.4101 114.673 98.147 111.838C95.6485 106.234 85.6842 103.386 91.3368 98.0038Z" fill="white"/>
<g opacity="0.25">
<path d="M78.6192 112.946C76.5767 111.205 75.8657 108.335 76.8287 105.829C77.5222 104.024 78.5041 102.376 79.709 100.937C77.0268 102.854 74.8918 105.562 73.6629 108.762C72.6999 111.268 73.4102 114.138 75.4534 115.879C80.0331 119.783 89.4336 121.934 95.2181 119.236C96.5031 118.637 97.4843 117.631 98.0553 116.446C92.2497 118.917 83.1144 116.778 78.6192 112.946Z" fill="#390075"/>
</g>
<path fill-rule="evenodd" clip-rule="evenodd" d="M89.0384 121.521C83.7332 121.521 78.0544 119.49 74.7655 116.686C72.3857 114.657 71.5443 111.32 72.6727 108.382C75.6724 100.572 83.4098 95.8731 91.478 96.9519C91.883 97.0066 92.2203 97.2877 92.3463 97.676C92.4723 98.0643 92.3645 98.4904 92.0687 98.7716C91.1262 99.6697 90.6745 100.469 90.6884 101.215C90.716 102.633 92.4388 104.153 94.2635 105.761C96.0679 107.352 98.1126 109.155 99.1164 111.407C100.603 114.741 99.088 118.603 95.6665 120.198C93.6953 121.117 91.4037 121.521 89.0384 121.521ZM89.1812 98.9202C82.8438 98.9202 77.0477 102.909 74.6533 109.142C73.8469 111.242 74.445 113.625 76.1422 115.072C80.3103 118.627 89.356 120.799 94.7705 118.275C97.1314 117.174 98.1891 114.536 97.1787 112.27C96.3629 110.44 94.5826 108.87 92.8606 107.352C90.676 105.426 88.613 103.607 88.5679 101.256C88.5526 100.462 88.7682 99.6887 89.2227 98.9202C89.2087 98.9202 89.1948 98.9202 89.1812 98.9202Z" fill="#390075"/>
<path d="M80.6062 100.282C77.4652 102.541 76.0942 107.548 76.508 111.223C76.897 114.678 79.3511 119.056 83.2016 119.382C83.4194 119.4 83.4762 119.09 83.308 118.988C81.9349 118.155 80.5588 117.454 79.4968 116.205C78.072 114.531 77.3996 112.387 77.2867 110.217C77.0842 106.32 78.7137 103.576 80.8611 100.537C80.9668 100.388 80.7555 100.175 80.6062 100.282Z" fill="#390075"/>
<path d="M90.8492 97.9863C84.7274 98.282 82.4343 106.317 84.3574 111.105C85.5112 113.976 87.6856 116.183 90.4252 117.575C92.7322 118.747 95.9796 119.917 98.2144 118.042C98.3754 117.908 98.202 117.649 98.0155 117.701C92.7562 119.171 87.0671 115.587 85.1696 110.59C84.2386 108.138 84.2095 105.366 85.4078 103.004C86.6184 100.617 88.5036 99.3987 90.9089 98.427C91.1253 98.3403 91.1245 97.9732 90.8492 97.9863Z" fill="#390075"/>
<path d="M131.372 106.658C138.864 108.915 143.474 116.154 143.025 123.755C142.866 126.435 141.034 128.755 138.455 129.497C132.671 131.161 123.222 129.238 119.068 124.392C117.048 122.036 117.135 118.503 119.456 116.444C124.047 112.372 134.297 113.895 131.372 106.658Z" fill="white"/>
<g opacity="0.25">
<path d="M136.783 125.518C139.363 124.777 141.195 122.457 141.353 119.777C141.467 117.846 141.254 115.939 140.75 114.131C142.401 116.985 143.227 120.333 143.025 123.755C142.866 126.435 141.034 128.755 138.455 129.497C132.671 131.162 123.222 129.238 119.068 124.392C118.145 123.316 117.668 121.993 117.636 120.678C121.903 125.327 131.106 127.152 136.783 125.518Z" fill="#390075"/>
</g>
<path fill-rule="evenodd" clip-rule="evenodd" d="M133.786 131.15C128.227 131.15 121.732 129.129 118.263 125.082C115.806 122.216 116.021 118.074 118.752 115.651C120.597 114.015 123.204 113.217 125.504 112.513C127.829 111.802 130.026 111.13 130.637 109.85C130.958 109.177 130.877 108.262 130.388 107.055C130.235 106.677 130.313 106.244 130.589 105.942C130.863 105.641 131.287 105.524 131.678 105.642C139.475 107.992 144.577 115.466 144.084 123.818C143.898 126.96 141.754 129.651 138.748 130.517C137.281 130.939 135.582 131.15 133.786 131.15ZM132.92 108.366C133.016 109.253 132.893 110.047 132.552 110.762C131.539 112.886 128.909 113.69 126.124 114.542C123.929 115.213 121.659 115.908 120.159 117.237C118.303 118.884 118.177 121.724 119.873 123.702C123.761 128.237 132.897 129.993 138.161 128.478C140.304 127.862 141.833 125.939 141.967 123.693C142.361 117.013 138.713 110.974 132.92 108.366Z" fill="#390075"/>
<path d="M139.872 113.322C140.62 117.037 140.886 120.357 138.995 123.825C138.139 125.396 136.966 126.77 135.422 127.702C133.715 128.731 131.958 128.84 130.039 129.083C129.807 129.113 129.748 129.414 129.983 129.498C133.624 130.806 137.688 127.755 139.45 124.768C141.34 121.564 142.092 116.548 140.213 113.178C140.106 112.986 139.832 113.122 139.872 113.322Z" fill="#390075"/>
<path d="M131.572 107.207C133.377 109.118 134.637 111.044 134.711 113.777C134.78 116.322 133.688 118.714 131.926 120.524C128.183 124.371 121.377 125.448 117.168 121.851C116.99 121.698 116.746 121.886 116.848 122.098C118.107 124.727 121.644 124.994 124.214 124.854C127.38 124.681 130.367 123.489 132.6 121.198C136.09 117.618 137.139 109.528 131.844 106.854C131.62 106.741 131.393 107.016 131.572 107.207Z" fill="#390075"/>
<path d="M55.4732 91.8529C48.7781 90.9569 42.5719 95.0041 40.2146 101.14C39.3835 103.304 39.9968 105.781 41.7604 107.285C45.7143 110.655 53.8299 112.512 58.8233 110.183C61.2512 109.051 62.4429 106.243 61.3517 103.796C59.1948 98.958 50.5927 96.4996 55.4732 91.8529Z" fill="white"/>
<g opacity="0.25">
<path d="M44.4935 104.753C42.7299 103.249 42.1166 100.772 42.9477 98.6091C43.5465 97.0503 44.3944 95.6277 45.4346 94.3849C43.1189 96.0407 41.276 98.3775 40.2146 101.14C39.3835 103.304 39.9968 105.781 41.7604 107.285C45.7143 110.655 53.8298 112.512 58.8233 110.183C59.9327 109.666 60.7799 108.797 61.273 107.774C56.2606 109.908 48.3739 108.061 44.4935 104.753Z" fill="#390075"/>
</g>
<path fill-rule="evenodd" clip-rule="evenodd" d="M53.4936 112.305C48.8731 112.305 43.9285 110.538 41.0665 108.098C38.962 106.304 38.219 103.354 39.2163 100.758C41.8314 93.9494 48.5738 89.8541 55.6134 90.7945C56.0213 90.8492 56.3615 91.1325 56.4882 91.523C56.615 91.9141 56.5064 92.3432 56.2085 92.6265C55.4269 93.371 55.0525 94.0237 55.0641 94.6225C55.086 95.7792 56.5494 97.0693 58.0988 98.4351C59.6678 99.8184 61.4467 101.387 62.3266 103.362C63.6437 106.317 62.3026 109.738 59.2738 111.151C57.5546 111.953 55.5558 112.305 53.4936 112.305ZM53.3851 92.7992C48.0653 92.8917 43.2263 96.2767 41.2107 101.524C40.5376 103.276 41.0366 105.264 42.4527 106.472C46.0177 109.511 53.7493 111.371 58.3705 109.215C60.3329 108.3 61.2129 106.111 60.3752 104.231C59.6846 102.682 58.16 101.338 56.6856 100.038C54.7742 98.352 52.9684 96.7604 52.9283 94.6633C52.916 94.0295 53.0668 93.4111 53.3851 92.7992Z" fill="#390075"/>
<path d="M46.2084 93.8197C43.4425 95.9278 42.2114 100.272 42.717 103.61C43.1504 106.476 45.2512 110.049 48.449 110.309C48.6384 110.324 48.685 110.057 48.5415 109.968C45.6271 108.165 43.6457 106.343 43.3609 102.67C43.0943 99.2305 44.4696 96.7057 46.4291 94.0397C46.5216 93.9136 46.3351 93.7235 46.2084 93.8197Z" fill="#390075"/>
<path d="M55.0498 91.8383C49.8269 92.1967 47.7654 98.8808 49.4161 103.088C50.3863 105.561 52.2337 107.475 54.577 108.694C56.5933 109.743 59.4437 110.786 61.4083 109.153C61.5496 109.034 61.3959 108.816 61.2364 108.857C56.6487 110.054 51.7165 107.039 50.1095 102.617C48.4487 98.0475 50.7746 93.9238 55.1015 92.2185C55.288 92.145 55.2865 91.8216 55.0498 91.8383Z" fill="#390075"/>
<path d="M166.5 116.214C172.968 118.163 176.948 124.413 176.561 130.975C176.424 133.288 174.842 135.291 172.615 135.931C167.622 137.369 159.464 135.708 155.878 131.524C154.135 129.491 154.209 126.441 156.213 124.663C160.176 121.148 169.026 122.462 166.5 116.214Z" fill="white"/>
<g opacity="0.25">
<path d="M171.172 132.497C173.398 131.856 174.981 129.853 175.117 127.54C175.215 125.874 175.031 124.227 174.597 122.666C176.021 125.13 176.735 128.02 176.56 130.975C176.424 133.288 174.842 135.291 172.615 135.931C167.622 137.368 159.464 135.708 155.878 131.524C155.082 130.595 154.67 129.453 154.643 128.318C158.326 132.331 166.271 133.907 171.172 132.497Z" fill="#390075"/>
</g>
<path fill-rule="evenodd" clip-rule="evenodd" d="M168.593 137.509C163.751 137.509 158.091 135.748 155.067 132.219C152.891 129.681 153.083 126.011 155.504 123.864C157.121 122.43 159.389 121.736 161.389 121.124C163.365 120.52 165.229 119.949 165.728 118.904C165.985 118.364 165.914 117.615 165.51 116.615C165.355 116.234 165.434 115.798 165.711 115.494C165.988 115.191 166.415 115.073 166.809 115.191C173.609 117.24 178.056 123.757 177.627 131.038C177.462 133.814 175.567 136.194 172.91 136.958C171.634 137.326 170.156 137.509 168.593 137.509ZM168.01 117.937C168.047 118.627 167.929 119.252 167.656 119.824C166.753 121.717 164.451 122.422 162.014 123.167C160.135 123.742 158.191 124.336 156.922 125.462C155.382 126.828 155.28 129.185 156.689 130.829C160.009 134.702 167.817 136.201 172.319 134.905C174.107 134.391 175.382 132.786 175.494 130.912C175.825 125.301 172.816 120.22 168.01 117.937Z" fill="#390075"/>
<path d="M173.839 121.968C174.575 125.326 174.68 128.474 172.812 131.511C171.01 134.439 168.501 135.145 165.301 135.581C165.105 135.608 165.153 135.879 165.301 135.933C168.333 137.031 171.749 134.563 173.308 132.117C175.125 129.266 175.73 124.909 174.132 121.843C174.046 121.676 173.801 121.795 173.839 121.968Z" fill="#390075"/>
<path d="M166.673 116.688C169.977 120.121 170.344 124.961 166.74 128.426C163.461 131.579 157.799 132.325 154.239 129.331C154.084 129.201 153.873 129.36 153.962 129.544C155.008 131.728 157.867 132.006 160.02 131.934C162.748 131.841 165.33 130.913 167.322 129.007C170.57 125.899 171.562 118.85 166.908 116.384C166.715 116.282 166.517 116.527 166.673 116.688Z" fill="#390075"/>
<g opacity="0.25">
<path d="M77.478 116.891C81.5274 120.805 87.4489 122.117 93.0775 122.288C95.0632 122.349 97.0919 122.282 98.9633 121.616C100.835 120.95 102.548 119.603 103.238 117.74C103.322 117.513 103.391 117.267 103.343 117.03C103.255 116.594 102.816 116.331 102.405 116.159C101.738 115.882 101.03 115.702 100.311 115.626C100.001 115.594 99.683 115.582 99.3836 115.666C98.8518 115.817 98.4541 116.246 98.0607 116.634C94.3639 120.282 88.4949 121.533 83.6326 119.711" fill="#390075"/>
</g>
<g opacity="0.25">
<path d="M128.77 68.2712L128.364 68.3571C128.361 68.1576 128.73 68.071 128.77 68.2712Z" fill="#390075"/>
</g>
<path d="M107.829 45.142C100.074 44.104 92.8847 48.7922 90.1545 55.9003C89.1915 58.4061 89.9025 61.2754 91.945 63.0171C96.5247 66.9215 105.925 69.0718 111.71 66.3744C114.521 65.0633 115.903 61.8108 114.639 58.9764C112.14 53.3719 102.176 50.5244 107.829 45.142Z" fill="white"/>
<g opacity="0.25">
<path d="M95.1108 60.0844C93.0682 58.3427 92.358 55.4734 93.3203 52.9676C94.0137 51.1625 94.9957 49.514 96.2005 48.0754C93.5191 49.9926 91.3834 52.6995 90.1545 55.9002C89.1915 58.4061 89.9025 61.2761 91.945 63.0171C96.5247 66.9215 105.925 69.0718 111.71 66.3744C112.995 65.7756 113.976 64.769 114.547 63.5838C108.741 66.0554 99.606 63.916 95.1108 60.0844Z" fill="#390075"/>
</g>
<path fill-rule="evenodd" clip-rule="evenodd" d="M105.53 68.6595C100.224 68.6595 94.5448 66.6279 91.2559 63.8242C88.8761 61.7955 88.0348 58.4578 89.1639 55.52C92.1643 47.7097 99.8981 43.012 107.969 44.0901C108.373 44.1447 108.711 44.4259 108.837 44.8141C108.963 45.2024 108.855 45.6285 108.56 45.9097C107.617 46.8079 107.165 47.607 107.179 48.3529C107.207 49.7712 108.929 51.2907 110.754 52.8991C112.558 54.49 114.603 56.2928 115.607 58.5452C117.094 61.8792 115.578 65.7407 112.158 67.3359C110.187 68.2552 107.895 68.6595 105.53 68.6595ZM105.672 46.0583C99.335 46.0583 93.5381 50.048 91.1438 56.2805C90.3366 58.3805 90.9354 60.7633 92.632 62.2099C96.8015 65.7647 105.847 67.9384 111.261 65.4136C113.622 64.3122 114.68 61.6745 113.669 59.4084C112.853 57.5785 111.073 56.008 109.351 54.49C107.166 52.564 105.104 50.7451 105.058 48.3937C105.043 47.6004 105.259 46.8268 105.713 46.0583C105.7 46.0583 105.686 46.0583 105.672 46.0583Z" fill="#390075"/>
<path d="M97.0959 47.4197C93.9549 49.6786 92.584 54.6859 92.9977 58.3608C93.3867 61.8165 95.8408 66.1937 99.6913 66.52C99.9091 66.5382 99.966 66.2279 99.7977 66.126C98.4246 65.2934 97.0486 64.5919 95.9865 63.3433C94.5617 61.6694 93.8894 59.5249 93.7772 57.3549C93.5739 53.4577 95.2035 50.7137 97.3509 47.6754C97.4565 47.5261 97.2453 47.3126 97.0959 47.4197Z" fill="#390075"/>
<path d="M107.338 45.1244C101.217 45.4202 98.9235 53.4556 100.847 58.2428C102 61.1143 104.175 63.3208 106.914 64.7128C109.221 65.8849 112.469 67.0547 114.704 65.1805C114.865 65.0457 114.691 64.7871 114.505 64.8396C109.245 66.3095 103.556 62.7249 101.659 57.7286C100.729 55.2766 100.699 52.5042 101.897 50.1419C103.108 47.7555 104.993 46.5369 107.398 45.5651C107.615 45.4785 107.614 45.1113 107.338 45.1244Z" fill="#390075"/>
<path d="M76.8755 39.6911C70.1805 38.7951 63.9742 42.8423 61.617 48.9794C60.7858 51.1421 61.3992 53.6195 63.1627 55.123C67.1167 58.4935 75.2322 60.3503 80.2256 58.0215C82.6535 56.8895 83.8452 54.0813 82.754 51.6345C80.5971 46.7963 71.995 44.3385 76.8755 39.6911Z" fill="white"/>
<g opacity="0.25">
<path d="M65.8958 52.5909C64.1323 51.0875 63.5189 48.6108 64.3501 46.4473C64.9489 44.8885 65.7968 43.4658 66.837 42.2238C64.5213 43.8789 62.6783 46.2164 61.617 48.9794C60.7858 51.1421 61.3992 53.6195 63.1627 55.123C67.1167 58.4935 75.2322 60.3503 80.2256 58.0214C81.335 57.5043 82.1822 56.6352 82.6753 55.6125C77.663 57.7461 69.7762 55.8988 65.8958 52.5909Z" fill="#390075"/>
</g>
<path fill-rule="evenodd" clip-rule="evenodd" d="M74.8968 60.1433C70.2763 60.1433 65.3324 58.3762 62.4697 55.9359C60.366 54.1425 59.6222 51.1923 60.6195 48.5962C63.2345 41.7875 69.9755 37.6915 77.0166 38.6326C77.4245 38.6873 77.7639 38.9706 77.8907 39.3611C78.0174 39.7522 77.9096 40.1813 77.6117 40.4646C76.8301 41.2091 76.4557 41.8618 76.4673 42.4606C76.4892 43.6173 77.9526 44.9074 79.5013 46.2732C81.071 47.6565 82.8491 49.2248 83.7298 51.1996C85.0476 54.1549 83.7065 57.5771 80.6769 58.9895C78.9578 59.7915 76.959 60.1433 74.8968 60.1433ZM74.7883 40.6373C69.4685 40.7298 64.6295 44.1148 62.6139 49.3618C61.9408 51.1144 62.4398 53.103 63.8552 54.31C67.4209 57.3491 75.1503 59.2102 79.7737 57.0533C81.7354 56.1384 82.616 53.9494 81.7783 52.0701C81.0878 50.52 79.5632 49.176 78.0888 47.8757C76.1767 46.1901 74.3716 44.5985 74.3308 42.5013C74.3192 41.8676 74.4699 41.2492 74.7883 40.6373Z" fill="#390075"/>
<path d="M67.6102 41.6578C64.8443 43.7659 63.6133 48.1103 64.1188 51.448C64.5522 54.3144 66.6531 57.8866 69.8509 58.1467C70.0403 58.162 70.0869 57.8961 69.9434 57.8065C67.0289 56.0043 65.0476 54.1811 64.7628 50.5083C64.4961 47.0693 65.8714 44.5439 67.8309 41.8785C67.9234 41.7518 67.737 41.5616 67.6102 41.6578Z" fill="#390075"/>
<path d="M76.4538 39.6765C71.2302 40.0356 69.1687 46.719 70.8194 50.9257C71.7904 53.3995 73.637 55.3131 75.9803 56.5318C77.9967 57.5807 80.847 58.6239 82.8116 56.9907C82.9529 56.8734 82.8 56.6542 82.6397 56.6957C78.052 57.8925 73.1198 54.8768 71.5128 50.4559C69.852 45.8857 72.1779 41.762 76.5048 40.0567C76.6913 39.9839 76.6898 39.6597 76.4538 39.6765Z" fill="#390075"/>
<path d="M138.532 51.7787C146.023 54.0361 150.634 61.2753 150.185 68.8765C150.027 71.5565 148.195 73.8765 145.615 74.6181C139.832 76.2826 130.382 74.3588 126.228 69.5132C124.209 67.1574 124.295 63.6245 126.616 61.566C131.206 57.4933 141.457 59.0157 138.532 51.7787Z" fill="white"/>
<g opacity="0.25">
<path d="M143.942 70.6401C146.522 69.8979 148.354 67.5778 148.512 64.8979C148.627 62.9675 148.413 61.0612 147.91 59.2525C149.561 62.1065 150.387 65.4544 150.184 68.8766C150.026 71.5565 148.194 73.8766 145.615 74.6181C139.831 76.2826 130.381 74.3588 126.227 69.5133C125.304 68.4366 124.826 67.1145 124.796 65.7997C129.062 70.4486 138.266 72.2733 143.942 70.6401Z" fill="#390075"/>
</g>
<path fill-rule="evenodd" clip-rule="evenodd" d="M140.946 76.2709C135.387 76.2709 128.892 74.2509 125.422 70.2037C122.966 67.3373 123.181 63.1947 125.912 60.7719C127.756 59.1359 130.363 58.3382 132.664 57.6345C134.99 56.9236 137.187 56.2513 137.796 54.9707C138.117 54.2976 138.037 53.3834 137.549 52.1764C137.396 51.7976 137.474 51.3649 137.749 51.0633C138.024 50.7618 138.447 50.6452 138.838 50.7632C146.636 53.1131 151.737 60.5869 151.244 68.9392C151.058 72.0809 148.914 74.7732 145.908 75.6379C144.442 76.0596 142.742 76.2709 140.946 76.2709ZM140.08 53.4868C140.176 54.3741 140.053 55.1681 139.711 55.8841C138.7 58.0068 136.069 58.8117 133.284 59.6633C131.089 60.3349 128.818 61.0291 127.319 62.3592C125.464 64.0055 125.338 66.8449 127.033 68.8226C130.921 73.3579 140.057 75.1134 145.322 73.599C147.465 72.9827 148.994 71.0596 149.126 68.8139C149.52 62.1341 145.872 56.0954 140.08 53.4868Z" fill="#390075"/>
<path d="M147.034 58.4432C147.781 62.1589 148.048 65.4777 146.157 68.9458C145.3 70.5177 144.128 71.8915 142.584 72.8232C140.875 73.8532 139.12 73.961 137.2 74.2051C136.968 74.2342 136.908 74.535 137.144 74.6195C140.784 75.9278 144.849 72.8757 146.61 69.8891C148.501 66.6854 149.253 61.6687 147.374 58.2997C147.267 58.1073 146.993 58.2428 147.034 58.4432Z" fill="#390075"/>
<path d="M138.732 52.3279C140.538 54.2386 141.798 56.1653 141.872 58.8984C141.941 61.4436 140.848 63.835 139.086 65.6459C135.343 69.492 128.537 70.5701 124.329 66.9724C124.15 66.8201 123.906 67.0074 124.008 67.2193C125.267 69.8483 128.804 70.1156 131.374 69.975C134.54 69.8024 137.527 68.6099 139.76 66.3197C143.25 62.7394 144.299 54.6494 139.005 51.9753C138.78 51.8617 138.552 52.1371 138.732 52.3279Z" fill="#390075"/>
<path d="M168.972 59.5985C175.439 61.5478 179.42 67.797 179.032 74.3588C178.895 76.6723 177.314 78.6755 175.087 79.3158C170.093 80.753 161.936 79.0914 158.35 74.9087C156.607 72.875 156.681 69.825 158.685 68.0476C162.648 64.5322 171.497 65.8463 168.972 59.5985Z" fill="white"/>
<g opacity="0.25">
<path d="M173.643 75.8811C175.87 75.2409 177.452 73.2377 177.588 70.9241C177.687 69.2575 177.502 67.6119 177.068 66.0509C178.493 68.5145 179.207 71.4042 179.032 74.3587C178.895 76.6722 177.314 78.6754 175.087 79.3157C170.094 80.7529 161.936 79.0914 158.35 74.9087C157.554 73.9792 157.141 72.8377 157.114 71.7028C160.798 75.7158 168.743 77.2914 173.643 75.8811Z" fill="#390075"/>
</g>
<path fill-rule="evenodd" clip-rule="evenodd" d="M171.064 80.8936C166.223 80.8936 160.563 79.1315 157.539 75.6037C155.364 73.0658 155.555 69.3959 157.976 67.2485C159.593 65.8135 161.861 65.12 163.861 64.5081C165.836 63.9042 167.701 63.3339 168.199 62.2886C168.457 61.7481 168.386 60.9992 167.982 59.9991C167.827 59.6174 167.906 59.1818 168.183 58.8788C168.46 58.5743 168.888 58.457 169.28 58.5757C176.08 60.6248 180.528 67.1414 180.098 74.4221C179.934 77.1989 178.038 79.578 175.382 80.3429C174.106 80.71 172.628 80.8936 171.064 80.8936ZM170.482 61.3219C170.519 62.0103 170.401 62.636 170.128 63.2086C169.225 65.1018 166.923 65.8062 164.486 66.5514C162.607 67.1261 160.663 67.7205 159.394 68.8467C157.854 70.2125 157.752 72.5697 159.161 74.2131C162.481 78.0862 170.289 79.586 174.791 78.2894C176.579 77.7751 177.855 76.1704 177.966 74.2961C178.297 68.685 175.288 63.6041 170.482 61.3219Z" fill="#390075"/>
<path d="M176.31 65.3517C177.046 68.7105 177.151 71.8588 175.283 74.8949C173.481 77.8232 170.972 78.5291 167.773 78.9654C167.576 78.9924 167.624 79.2633 167.773 79.3172C170.804 80.4157 174.22 77.9478 175.779 75.5017C177.596 72.6506 178.201 68.2938 176.604 65.2278C176.517 65.0603 176.272 65.1798 176.31 65.3517Z" fill="#390075"/>
<path d="M169.145 60.0727C172.448 63.5058 172.815 68.3455 169.212 71.81C165.932 74.9634 160.271 75.7093 156.71 72.7154C156.556 72.5857 156.345 72.7445 156.433 72.9288C157.479 75.1112 160.339 75.3902 162.492 75.3174C165.22 75.2256 167.801 74.2976 169.794 72.3912C173.042 69.283 174.034 62.2339 169.38 59.7682C169.187 59.6662 168.989 59.9109 169.145 60.0727Z" fill="#390075"/>
<path d="M6.40723 97.7918C6.40723 99.3528 7.67252 100.619 9.23356 100.619C10.7953 100.619 12.0606 99.3528 12.0606 97.7918C12.0606 96.2308 10.7953 94.9655 9.23356 94.9655C7.67252 94.9655 6.40723 96.2308 6.40723 97.7918Z" fill="#FFD522"/>
<path d="M190.422 116.618C190.422 118.104 191.627 119.309 193.113 119.309C194.6 119.309 195.805 118.104 195.805 116.618C195.805 115.131 194.6 113.926 193.113 113.926C191.627 113.926 190.422 115.131 190.422 116.618Z" fill="#F22761"/>
<path d="M53.3856 0C53.3856 0 53.3397 6.93398 63.135 12.1977L56.5441 18.0565C56.5441 18.0565 47.0234 14.1659 45.2388 4.18778L53.3856 0Z" fill="#FFD522"/>
<path d="M37.9503 184.581C37.9503 184.581 32.1031 185.828 29.488 195.053L23.332 190.589C23.332 190.589 24.8421 181.852 32.9124 178.497L37.9503 184.581Z" fill="#24A7FF"/>
<path d="M18.0397 26.9259C18.0397 26.9259 23.1999 32.1371 31.4786 28.4687L30.7036 35.2177C30.7036 35.2177 23.374 38.4549 17.2646 33.6749L18.0397 26.9259Z" fill="#F22761"/>
<path d="M33.2747 66.6373C33.2747 68.1233 32.0692 69.3289 30.5832 69.3289C29.0964 69.3289 27.8916 68.1233 27.8916 66.6373C27.8916 65.1506 29.0964 63.9457 30.5832 63.9457C32.0692 63.9457 33.2747 65.1506 33.2747 66.6373Z" fill="#24A7FF"/>
<path d="M198.275 13.283C198.275 13.283 191.353 12.8649 186.755 2.74039L180.47 8.92554C180.47 8.92554 183.716 18.6844 193.552 21.1319L198.275 13.283Z" fill="#F22761"/>
<path d="M199.11 156.456C199.11 156.456 204.044 159.833 202.956 169.358L210.346 167.571C210.346 167.571 212.272 158.915 206.082 152.744L199.11 156.456Z" fill="#FFD522"/>
<path d="M220.808 88.3272C220.808 88.3272 216.72 96.2781 205.75 95.0499L209.126 102.613C209.126 102.613 218.835 103.688 224.185 95.8898L220.808 88.3272Z" fill="#24A7FF"/>
<path d="M0.861008 150.399C0.861008 150.399 5.29063 145.656 12.7098 148.685L11.8487 142.735C11.8487 142.735 5.28043 140.061 0 144.449L0.861008 150.399Z" fill="#F22761"/>
<path d="M197.959 47.2223C197.959 48.9771 199.382 50.3998 201.136 50.3998C202.891 50.3998 204.313 48.9771 204.313 47.2223C204.313 45.4683 202.891 44.0456 201.136 44.0456C199.382 44.0456 197.959 45.4683 197.959 47.2223Z" fill="#FFD522"/>
</svg>
