<svg width="223" height="223" viewBox="0 0 223 223" fill="none" xmlns="http://www.w3.org/2000/svg">
<path d="M199.655 172.788C182.034 159.935 170.736 170.615 169.661 171.707C169.627 171.703 169.595 171.698 169.565 171.694C169.559 171.687 169.556 171.684 169.556 171.684C169.556 171.686 169.557 171.689 169.558 171.693C169.54 171.691 169.522 171.689 169.505 171.686L169.497 171.668L169.469 171.614L169.443 171.555L169.413 171.496L169.379 171.433L169.318 171.3L169.282 171.234L169.249 171.164L169.214 171.09L169.177 171.024L169.142 170.95L169.107 170.877L169.074 170.808L169.035 170.737L169.002 170.667L168.97 170.597L168.936 170.534L168.904 170.467L168.872 170.407L168.845 170.344L168.765 170.184L168.741 170.137L168.721 170.098L168.702 170.058L168.687 170.028L168.673 170L168.663 169.978L168.654 169.965C168.649 169.958 168.306 169.256 167.706 168.051C164.025 160.59 150.834 133.865 150.834 133.865L143.36 118.719L142.691 117.362L136.88 105.593L132.435 96.5924L119.757 70.9035C120.134 67.2289 119.41 64.2319 117.434 62.2812C110.764 55.6936 92.3474 63.5268 76.2991 79.7759C60.2513 96.0253 52.6496 114.538 59.3195 121.126C61.2966 123.078 64.3037 123.764 67.9747 123.34L79.0187 128.623L104.245 140.685L116.078 146.345L117.963 147.246L135.303 155.539C135.439 155.602 135.44 155.606 135.446 155.607L135.456 155.614L135.467 155.617L135.478 155.624L135.491 155.629L135.505 155.635L135.518 155.64L135.528 155.648L135.54 155.654L135.557 155.663L135.57 155.668L135.584 155.673L135.6 155.683L135.615 155.69L135.629 155.695L135.647 155.703L135.663 155.712L135.679 155.72L135.697 155.727L135.712 155.735L135.731 155.747L135.75 155.754L135.768 155.76L135.787 155.772L135.807 155.779L135.827 155.788L135.845 155.8L135.866 155.811L135.909 155.83L135.93 155.84L135.95 155.849L135.972 155.859L135.996 155.872L136.017 155.882L136.037 155.892L136.065 155.903L136.088 155.915L136.11 155.925L136.136 155.936L136.16 155.95L136.187 155.96L136.209 155.973L136.236 155.984L136.262 156.001L136.289 156.012L136.316 156.022L136.342 156.038L136.369 156.049L136.397 156.064L136.426 156.078L136.454 156.089L136.482 156.103L136.512 156.117L136.541 156.13L136.57 156.145L136.601 156.162L136.63 156.177L136.662 156.188L136.692 156.203L136.723 156.22L136.755 156.232L136.786 156.25L136.82 156.265L136.852 156.283L136.884 156.294L136.916 156.311L136.95 156.326L136.982 156.344L137.016 156.359L137.054 156.377L137.088 156.393L137.122 156.407L137.157 156.428L137.192 156.444L137.227 156.462L137.262 156.477L137.299 156.496L137.336 156.514L137.376 156.531L137.411 156.546L137.447 156.564L137.485 156.583L137.524 156.605L137.564 156.621L137.6 156.639L137.641 156.655L137.68 156.677L137.716 156.696L137.759 156.715L137.799 156.732L137.839 156.754L137.881 156.773L137.918 156.791L137.96 156.81L138.002 156.831L138.044 156.85L138.087 156.87L138.127 156.891L138.17 156.911L138.211 156.931L138.255 156.953L138.298 156.973L138.342 156.996L138.385 157.015L138.43 157.038L138.475 157.056L138.52 157.079L138.565 157.101L138.607 157.121L138.656 157.141L138.7 157.164L138.745 157.187L138.793 157.209L138.837 157.231L138.886 157.251L138.93 157.274L138.98 157.298L139.026 157.321L139.073 157.342L139.121 157.368L139.169 157.388L139.219 157.412L139.266 157.438L139.314 157.459L139.363 157.482L139.414 157.507L139.464 157.531L139.512 157.551L139.562 157.575L139.613 157.598L139.663 157.623L139.716 157.65L139.766 157.674L139.817 157.698L139.866 157.722L139.919 157.749L139.969 157.773L140.02 157.797L140.075 157.821L140.125 157.845L140.177 157.873L140.234 157.898L140.284 157.922L140.336 157.949L140.393 157.974L140.445 158.001L140.5 158.026L140.553 158.053L140.609 158.078L140.661 158.105L140.773 158.155L140.826 158.182L140.881 158.207L140.939 158.235L140.991 158.262L141.048 158.288L141.106 158.316L141.162 158.341L141.219 158.369L141.275 158.394L141.33 158.425L141.389 158.453L141.444 158.477L141.502 158.506L141.56 158.534L141.619 158.563L141.676 158.59L141.734 158.619L141.796 158.646L141.854 158.674L141.912 158.702L141.971 158.73L142.029 158.758L142.09 158.784L142.148 158.812L142.209 158.844L142.267 158.872L142.327 158.898L142.387 158.931L142.447 158.958L142.509 158.987L142.567 159.016L142.632 159.045L142.689 159.073L142.753 159.102L142.814 159.134L142.875 159.16L142.935 159.192L142.999 159.221L143.061 159.25L143.122 159.282L143.186 159.311L143.25 159.341L143.311 159.372L143.373 159.401L143.437 159.43L143.501 159.46L143.562 159.491L143.625 159.521L143.689 159.55L143.754 159.583L143.818 159.612L143.882 159.641L143.942 159.673L144.007 159.705L144.072 159.734L144.137 159.767L144.201 159.796L144.267 159.829L144.33 159.859L144.397 159.891L144.46 159.92L144.526 159.953L144.595 159.983L144.658 160.013L144.725 160.045L144.791 160.078L144.856 160.11L144.922 160.143L144.99 160.17L145.055 160.203L145.121 160.236L145.187 160.269L145.256 160.298L145.322 160.331L145.387 160.365L145.454 160.397L145.523 160.426L145.59 160.46L145.657 160.496L145.727 160.527L145.792 160.558L145.861 160.589L145.928 160.621L145.998 160.655L146.064 160.688L146.134 160.718L146.203 160.754L146.268 160.787L146.337 160.817L146.409 160.85L146.475 160.883L146.546 160.916L146.612 160.949L146.684 160.983L146.75 161.015L146.82 161.05L146.89 161.08L146.959 161.116L147.029 161.149L147.099 161.18L147.167 161.215L147.238 161.249L147.308 161.28L147.376 161.315L147.447 161.348L147.519 161.383L147.588 161.413L147.656 161.449L147.728 161.482L147.87 161.55L147.939 161.586L148.01 161.619L148.079 161.65L148.151 161.683L148.222 161.718L148.294 161.75L148.362 161.787L148.433 161.82L148.505 161.854L148.576 161.889L148.648 161.922L148.719 161.956L148.79 161.988L148.865 162.026L148.935 162.06L149.004 162.095L149.076 162.129L149.146 162.162L149.219 162.196L149.29 162.23L149.362 162.263L149.435 162.301L149.506 162.334L149.578 162.368L149.65 162.401L149.723 162.438L149.937 162.54L150.012 162.577L150.083 162.61L150.154 162.644L150.227 162.677L150.3 162.714L150.371 162.748L150.443 162.781L150.52 162.815L150.591 162.85L150.663 162.883L150.736 162.92L150.807 162.954L150.881 162.991L150.953 163.025L151.025 163.058L151.099 163.095L151.17 163.129L151.241 163.162L151.315 163.199L151.389 163.23L151.463 163.268L151.535 163.302L151.606 163.335L151.68 163.372L151.752 163.406L151.825 163.443L151.897 163.476L151.97 163.513L152.045 163.544L152.116 163.578L152.191 163.615L152.262 163.648L152.336 163.685L152.408 163.719L152.481 163.756L152.552 163.789L152.627 163.827L152.7 163.858L152.772 163.891L152.845 163.929L152.918 163.963L152.991 164L153.063 164.033L153.136 164.071L153.208 164.104L153.282 164.135L153.355 164.172L153.428 164.206L153.501 164.242L153.573 164.277L153.645 164.31L153.718 164.347L153.789 164.38L153.863 164.417L153.934 164.451L154.01 164.482L154.084 164.519L154.155 164.554L154.228 164.59L154.3 164.624L154.371 164.657L154.445 164.695L154.517 164.728L154.587 164.761L154.661 164.798L154.734 164.832L154.804 164.866L154.876 164.899L154.951 164.936L155.021 164.97L155.093 165.003L155.165 165.037L155.238 165.075L155.309 165.108L155.381 165.141L155.453 165.176L155.526 165.212L155.598 165.246L155.669 165.28L155.741 165.313L155.811 165.346L155.884 165.381L155.954 165.414L156.029 165.451L156.101 165.485L156.171 165.519L156.244 165.552L156.315 165.585L156.383 165.622L156.454 165.655L156.526 165.689L156.598 165.723L156.669 165.756L156.741 165.79L156.811 165.823L156.879 165.86L156.951 165.893L157.022 165.927L157.091 165.957L157.163 165.991L157.231 166.026L157.303 166.061L157.374 166.094L157.444 166.124L157.512 166.16L157.655 166.227L157.721 166.26L157.793 166.294L157.864 166.327L157.93 166.36L158.001 166.393L158.073 166.427L158.138 166.459L158.21 166.494L158.279 166.523L158.346 166.56L158.416 166.59L158.484 166.626L158.554 166.656L158.622 166.693L158.691 166.723L158.757 166.755L158.829 166.789L158.893 166.822L158.963 166.852L159.032 166.888L159.101 166.918L159.166 166.951L159.233 166.984L159.302 167.014L159.368 167.046L159.439 167.08L159.505 167.113L159.571 167.146L159.637 167.178L159.706 167.208L159.772 167.241L159.838 167.274L159.908 167.304L159.971 167.333L160.037 167.366L160.102 167.398L160.168 167.431L160.235 167.464L160.302 167.491L160.367 167.524L160.433 167.557L160.497 167.586L160.629 167.65L160.692 167.68L160.758 167.713L160.821 167.742L160.888 167.774L160.951 167.804L161.014 167.832L161.08 167.865L161.144 167.894L161.205 167.927L161.268 167.956L161.334 167.989L161.398 168.018L161.461 168.047L161.522 168.078L161.586 168.108L161.649 168.137L161.713 168.166L161.773 168.198L161.836 168.227L161.896 168.259L161.961 168.288L162.022 168.314L162.082 168.346L162.146 168.375L162.206 168.407L162.268 168.433L162.328 168.464L162.389 168.49L162.449 168.521L162.511 168.548L162.572 168.58L162.629 168.607L162.692 168.637L162.752 168.665L162.808 168.693L162.866 168.722L162.931 168.751L162.989 168.779L163.047 168.807L163.105 168.836L163.164 168.864L163.225 168.89L163.283 168.918L163.341 168.947L163.399 168.975L163.454 169L163.514 169.028L163.571 169.056L163.627 169.081L163.682 169.112L163.74 169.14L163.796 169.165L163.853 169.193L163.909 169.218L163.965 169.243L164.02 169.274L164.076 169.298L164.131 169.323L164.184 169.351L164.242 169.379L164.298 169.403L164.35 169.432L164.406 169.455L164.459 169.483L164.512 169.505L164.565 169.532L164.617 169.56L164.673 169.584L164.725 169.612L164.778 169.633L164.831 169.661L164.881 169.684L164.935 169.711L164.988 169.733L165.041 169.76L165.091 169.784L165.141 169.808L165.191 169.833L165.241 169.856L165.294 169.883L165.344 169.907L165.395 169.93L165.445 169.955L165.493 169.975L165.543 170L165.594 170.023L165.64 170.05L165.689 170.07L165.739 170.094L165.786 170.114L165.833 170.14L165.881 170.161L165.928 170.187L165.976 170.207L166.024 170.228L166.069 170.251L166.119 170.275L166.163 170.298L166.209 170.32L166.257 170.341L166.3 170.364L166.343 170.384L166.391 170.405L166.436 170.427L166.479 170.447L166.524 170.469L166.568 170.493L166.611 170.512L166.653 170.532L166.698 170.555L166.74 170.574L166.783 170.594L166.824 170.613L166.867 170.633L166.91 170.652L166.948 170.674L166.991 170.694L167.033 170.713L167.076 170.733L167.115 170.754L167.155 170.771L167.194 170.793L167.234 170.808L167.274 170.831L167.314 170.847L167.351 170.866L167.393 170.885L167.43 170.904L167.467 170.922L167.504 170.941L167.543 170.957L167.581 170.975L167.614 170.99L167.652 171.009L167.689 171.027L167.723 171.043L167.76 171.061L167.794 171.076L167.832 171.095L167.864 171.112L167.898 171.128L167.934 171.146L167.969 171.161L168.001 171.178L168.035 171.194L168.07 171.209L168.099 171.223L168.134 171.239L168.164 171.256L168.193 171.27L168.228 171.285L168.257 171.299L168.288 171.317L168.32 171.328L168.349 171.343L168.379 171.357L168.409 171.371L168.437 171.385L168.466 171.399L168.495 171.414L168.524 171.427L168.552 171.441L168.579 171.452L168.609 171.467L168.632 171.479L168.661 171.494L168.688 171.504L168.712 171.518L168.738 171.529L168.762 171.541L168.789 171.552L168.812 171.566L168.839 171.577L168.862 171.589L168.884 171.599L168.907 171.612L168.931 171.62L168.955 171.633L168.977 171.642L168.998 171.652L169.021 171.665L169.042 171.675L169.064 171.685L169.084 171.695L169.1 171.704L169.122 171.714L169.142 171.723L169.158 171.732L169.179 171.741L169.198 171.748L169.216 171.76L169.235 171.767L169.251 171.775L169.266 171.783L169.285 171.79L169.3 171.799L169.317 171.808L169.33 171.814L169.346 171.822L169.361 171.831L169.375 171.836L169.389 171.841L169.404 171.849L169.418 171.856L169.43 171.861L169.444 171.866L169.453 171.875L169.467 171.879L169.478 171.882L169.489 171.889L169.502 171.894L169.51 171.899L169.537 171.91L169.616 171.942L169.63 171.948L169.629 171.944C169.635 171.948 169.64 171.951 169.645 171.955C175.734 191.081 166.15 202.904 166.15 202.904L175.668 205.444C183.163 189.758 172.261 175.01 169.968 172.174C185.907 183.128 189.679 200.865 189.679 200.865L195.953 194.885C188.522 175.642 173.399 172.273 169.919 171.744C186.229 169.413 199.742 182.959 199.742 182.959L199.655 172.788Z" fill="#E61C56"/>
<path d="M166.147 202.903L175.666 205.443C183.161 189.757 172.259 175.009 169.965 172.173C169.858 172.1 169.75 172.026 169.643 171.954C175.732 191.08 166.147 202.903 166.147 202.903Z" fill="#7C2F79"/>
<path d="M199.739 182.958L199.654 172.788C182.033 159.935 170.736 170.615 169.66 171.707C169.737 171.717 169.822 171.729 169.917 171.744C186.227 169.412 199.739 182.958 199.739 182.958Z" fill="#FBBC09"/>
<path d="M169.565 171.694C169.562 171.694 169.561 171.693 169.558 171.693C169.539 171.691 169.522 171.689 169.504 171.686L169.52 171.72L169.547 171.764L169.565 171.805L169.587 171.844L169.601 171.879L169.615 171.907L169.626 171.944C169.632 171.947 169.638 171.95 169.642 171.954C169.75 172.026 169.858 172.1 169.965 172.173C185.905 183.127 189.676 200.864 189.676 200.864L195.95 194.884C188.52 175.641 173.397 172.272 169.917 171.744C169.822 171.729 169.737 171.717 169.66 171.707C169.626 171.703 169.595 171.698 169.565 171.694Z" fill="#40B6A7"/>
<path d="M117.435 62.2812C110.765 55.6936 92.3479 63.5268 76.2996 79.7759C60.2518 96.0253 52.6501 114.538 59.32 121.126C61.2971 123.078 64.3042 123.764 67.9752 123.34C75.0065 122.529 84.4722 117.647 93.7948 109.794C96.0353 107.906 98.2669 105.847 100.455 103.631C111.751 92.1949 118.861 79.6365 119.757 70.9034C120.134 67.2289 119.411 64.232 117.435 62.2812Z" fill="#F9B24B"/>
<path d="M116.571 68.464C116.353 66.8151 115.747 65.4437 114.719 64.4287C108.975 58.7537 92.247 66.3775 77.355 81.4576C69.8188 89.0871 64.1983 97.1645 61.2305 104.02C58.331 110.706 57.9561 116.232 60.7945 119.033C66.5363 124.705 83.2677 117.079 98.1568 102.001C110.391 89.6186 117.579 76.0591 116.571 68.464Z" fill="#2E3883"/>
<path d="M169.627 171.944L169.616 171.907L169.601 171.879L169.588 171.844L169.566 171.805L169.547 171.764L169.521 171.72L169.505 171.686L169.497 171.668L169.469 171.614L169.443 171.555L169.413 171.496L169.379 171.433L169.318 171.3L169.282 171.234L169.249 171.164L169.214 171.09L169.177 171.023L169.142 170.95L169.108 170.877L169.074 170.808L169.035 170.737L169.002 170.667L168.97 170.597L168.936 170.534L168.904 170.467L168.872 170.407L168.845 170.344L168.765 170.184L168.741 170.137L168.721 170.098L168.702 170.058L168.687 170.028L168.673 170L168.663 169.978L168.654 169.965C168.649 169.958 168.306 169.256 167.706 168.051L141.959 147.758L129.321 137.793L118.773 129.479L104.123 117.934L93.7943 109.794C84.4716 117.647 75.006 122.529 67.9746 123.34L79.0186 128.623L104.244 140.685L116.078 146.345L117.963 147.246L135.303 155.539C135.439 155.602 135.44 155.606 135.446 155.607L135.456 155.615L135.467 155.617L135.478 155.624L135.491 155.629L135.505 155.635L135.518 155.64L135.528 155.648L135.54 155.654L135.557 155.663L135.57 155.668L135.584 155.673L135.6 155.683L135.615 155.69L135.628 155.695L135.647 155.703L135.662 155.712L135.678 155.72L135.697 155.727L135.712 155.735L135.731 155.747L135.75 155.754L135.768 155.76L135.787 155.773L135.806 155.779L135.827 155.789L135.845 155.8L135.865 155.811L135.909 155.83L135.93 155.84L135.95 155.849L135.972 155.859L135.996 155.872L136.017 155.882L136.037 155.892L136.065 155.903L136.088 155.915L136.11 155.925L136.136 155.936L136.16 155.95L136.187 155.96L136.209 155.974L136.236 155.984L136.262 156.001L136.289 156.012L136.316 156.022L136.342 156.038L136.369 156.049L136.397 156.064L136.426 156.078L136.454 156.089L136.482 156.103L136.512 156.117L136.54 156.131L136.57 156.145L136.601 156.163L136.63 156.177L136.662 156.188L136.692 156.203L136.723 156.22L136.755 156.232L136.786 156.25L136.82 156.265L136.852 156.283L136.884 156.294L136.915 156.311L136.95 156.326L136.982 156.344L137.016 156.359L137.054 156.377L137.087 156.393L137.122 156.408L137.157 156.428L137.192 156.444L137.227 156.462L137.262 156.477L137.299 156.497L137.335 156.515L137.376 156.531L137.411 156.546L137.447 156.564L137.485 156.583L137.524 156.605L137.564 156.621L137.6 156.639L137.641 156.656L137.68 156.677L137.716 156.696L137.759 156.715L137.799 156.732L137.839 156.754L137.881 156.773L137.918 156.791L137.96 156.811L138.002 156.831L138.044 156.85L138.087 156.87L138.127 156.891L138.17 156.911L138.211 156.931L138.255 156.953L138.298 156.973L138.342 156.996L138.385 157.015L138.43 157.038L138.475 157.056L138.52 157.079L138.565 157.101L138.607 157.121L138.656 157.141L138.7 157.164L138.745 157.187L138.793 157.209L138.837 157.231L138.886 157.251L138.93 157.274L138.98 157.298L139.025 157.321L139.073 157.342L139.121 157.368L139.168 157.388L139.218 157.412L139.266 157.438L139.313 157.459L139.363 157.482L139.414 157.507L139.464 157.531L139.512 157.551L139.562 157.575L139.613 157.598L139.663 157.623L139.716 157.65L139.766 157.674L139.817 157.698L139.866 157.722L139.919 157.749L139.969 157.773L140.02 157.797L140.075 157.821L140.125 157.845L140.177 157.873L140.234 157.898L140.284 157.922L140.336 157.949L140.392 157.974L140.444 158.001L140.5 158.026L140.553 158.053L140.609 158.078L140.661 158.105L140.773 158.155L140.826 158.182L140.88 158.207L140.939 158.235L140.991 158.262L141.048 158.288L141.105 158.316L141.162 158.341L141.219 158.369L141.275 158.394L141.33 158.425L141.389 158.453L141.444 158.477L141.502 158.506L141.56 158.534L141.618 158.563L141.676 158.591L141.734 158.619L141.796 158.646L141.854 158.674L141.912 158.702L141.971 158.73L142.029 158.758L142.09 158.784L142.148 158.812L142.209 158.844L142.267 158.872L142.327 158.899L142.387 158.931L142.447 158.958L142.509 158.987L142.567 159.016L142.632 159.045L142.689 159.074L142.753 159.102L142.813 159.134L142.875 159.16L142.935 159.192L142.999 159.221L143.061 159.25L143.122 159.282L143.186 159.311L143.25 159.341L143.31 159.372L143.373 159.401L143.437 159.43L143.501 159.46L143.562 159.491L143.625 159.521L143.688 159.55L143.754 159.583L143.818 159.612L143.882 159.641L143.942 159.673L144.007 159.705L144.072 159.734L144.137 159.767L144.201 159.796L144.267 159.829L144.33 159.859L144.397 159.891L144.46 159.92L144.526 159.953L144.595 159.983L144.658 160.013L144.725 160.045L144.791 160.078L144.856 160.11L144.922 160.143L144.989 160.171L145.055 160.203L145.121 160.236L145.187 160.269L145.256 160.298L145.322 160.332L145.387 160.365L145.454 160.397L145.523 160.427L145.59 160.46L145.657 160.496L145.727 160.527L145.792 160.559L145.861 160.589L145.928 160.621L145.998 160.655L146.064 160.688L146.134 160.718L146.203 160.754L146.268 160.787L146.337 160.817L146.408 160.85L146.475 160.883L146.546 160.916L146.612 160.949L146.683 160.983L146.75 161.015L146.82 161.05L146.89 161.08L146.958 161.116L147.029 161.149L147.099 161.18L147.167 161.215L147.238 161.249L147.308 161.28L147.376 161.315L147.447 161.348L147.519 161.383L147.588 161.414L147.656 161.449L147.728 161.482L147.87 161.55L147.939 161.586L148.009 161.619L148.079 161.65L148.151 161.683L148.222 161.718L148.294 161.75L148.362 161.787L148.433 161.821L148.505 161.854L148.576 161.889L148.648 161.922L148.719 161.956L148.79 161.989L148.865 162.026L148.935 162.06L149.004 162.095L149.076 162.129L149.146 162.162L149.219 162.197L149.29 162.23L149.362 162.263L149.435 162.301L149.506 162.334L149.578 162.368L149.65 162.401L149.723 162.438L149.937 162.54L150.012 162.577L150.083 162.61L150.154 162.644L150.227 162.677L150.3 162.714L150.371 162.748L150.443 162.781L150.52 162.815L150.591 162.85L150.663 162.883L150.736 162.921L150.807 162.954L150.881 162.991L150.953 163.025L151.025 163.059L151.099 163.095L151.17 163.129L151.241 163.162L151.315 163.199L151.389 163.231L151.463 163.268L151.535 163.302L151.606 163.335L151.68 163.372L151.752 163.406L151.825 163.443L151.897 163.476L151.97 163.513L152.045 163.544L152.116 163.578L152.19 163.615L152.262 163.649L152.336 163.685L152.408 163.719L152.481 163.756L152.552 163.789L152.626 163.827L152.7 163.858L152.772 163.891L152.845 163.929L152.918 163.963L152.991 164L153.062 164.033L153.136 164.071L153.208 164.104L153.282 164.135L153.355 164.172L153.428 164.206L153.501 164.242L153.573 164.277L153.645 164.31L153.718 164.347L153.789 164.38L153.863 164.417L153.934 164.451L154.01 164.482L154.084 164.519L154.155 164.554L154.228 164.59L154.3 164.624L154.371 164.657L154.445 164.695L154.516 164.728L154.587 164.761L154.661 164.798L154.734 164.832L154.804 164.866L154.876 164.899L154.95 164.936L155.021 164.97L155.093 165.004L155.165 165.037L155.238 165.075L155.309 165.108L155.381 165.141L155.453 165.176L155.526 165.212L155.598 165.246L155.669 165.28L155.741 165.313L155.811 165.346L155.884 165.381L155.954 165.414L156.029 165.451L156.101 165.485L156.171 165.519L156.244 165.552L156.315 165.585L156.383 165.622L156.454 165.655L156.526 165.689L156.598 165.723L156.669 165.757L156.741 165.79L156.811 165.823L156.879 165.86L156.951 165.893L157.022 165.927L157.091 165.957L157.163 165.991L157.231 166.026L157.303 166.061L157.374 166.094L157.444 166.124L157.511 166.16L157.654 166.227L157.721 166.26L157.793 166.294L157.864 166.327L157.929 166.36L158.001 166.394L158.073 166.428L158.138 166.46L158.209 166.494L158.279 166.523L158.346 166.56L158.416 166.59L158.484 166.626L158.554 166.656L158.622 166.693L158.691 166.723L158.757 166.755L158.829 166.789L158.893 166.822L158.963 166.852L159.032 166.888L159.101 166.918L159.166 166.951L159.233 166.984L159.302 167.014L159.368 167.046L159.439 167.08L159.505 167.113L159.571 167.146L159.637 167.179L159.705 167.208L159.772 167.241L159.838 167.274L159.908 167.304L159.971 167.333L160.037 167.366L160.102 167.398L160.168 167.431L160.235 167.464L160.302 167.491L160.367 167.524L160.433 167.557L160.496 167.586L160.629 167.651L160.692 167.68L160.758 167.713L160.821 167.742L160.888 167.774L160.951 167.804L161.014 167.832L161.08 167.866L161.144 167.894L161.204 167.927L161.268 167.956L161.334 167.989L161.398 168.018L161.461 168.047L161.522 168.078L161.586 168.108L161.649 168.137L161.712 168.167L161.773 168.198L161.836 168.227L161.896 168.259L161.961 168.288L162.022 168.314L162.082 168.346L162.146 168.375L162.206 168.407L162.267 168.433L162.328 168.464L162.389 168.49L162.449 168.521L162.51 168.548L162.572 168.58L162.629 168.607L162.692 168.637L162.751 168.665L162.808 168.694L162.866 168.722L162.931 168.751L162.989 168.779L163.047 168.807L163.105 168.836L163.164 168.864L163.225 168.89L163.283 168.918L163.341 168.947L163.399 168.975L163.454 169L163.513 169.028L163.571 169.056L163.627 169.081L163.681 169.112L163.74 169.14L163.796 169.165L163.853 169.193L163.909 169.218L163.965 169.243L164.02 169.274L164.076 169.298L164.131 169.323L164.184 169.351L164.242 169.38L164.298 169.403L164.35 169.432L164.406 169.455L164.459 169.483L164.512 169.505L164.565 169.532L164.617 169.56L164.673 169.584L164.725 169.612L164.778 169.633L164.831 169.661L164.881 169.684L164.934 169.711L164.988 169.733L165.041 169.761L165.091 169.784L165.141 169.808L165.191 169.833L165.241 169.856L165.294 169.883L165.344 169.907L165.394 169.931L165.445 169.955L165.493 169.975L165.543 170L165.593 170.023L165.64 170.05L165.689 170.07L165.738 170.094L165.786 170.114L165.833 170.14L165.881 170.162L165.928 170.187L165.976 170.207L166.024 170.228L166.069 170.251L166.119 170.275L166.163 170.298L166.209 170.321L166.257 170.341L166.3 170.364L166.343 170.384L166.391 170.405L166.436 170.427L166.479 170.447L166.524 170.469L166.568 170.493L166.611 170.512L166.653 170.532L166.698 170.555L166.74 170.574L166.783 170.594L166.824 170.613L166.867 170.633L166.91 170.652L166.948 170.674L166.991 170.694L167.033 170.713L167.076 170.733L167.115 170.755L167.155 170.771L167.194 170.793L167.234 170.809L167.274 170.831L167.314 170.847L167.351 170.866L167.393 170.885L167.43 170.904L167.467 170.923L167.504 170.941L167.543 170.957L167.581 170.975L167.614 170.991L167.652 171.009L167.689 171.027L167.723 171.043L167.76 171.061L167.794 171.076L167.832 171.095L167.864 171.112L167.898 171.128L167.934 171.146L167.969 171.161L168 171.179L168.034 171.194L168.07 171.21L168.099 171.223L168.134 171.239L168.164 171.256L168.193 171.27L168.228 171.285L168.257 171.299L168.288 171.317L168.32 171.328L168.349 171.343L168.379 171.357L168.408 171.371L168.437 171.385L168.466 171.399L168.495 171.414L168.524 171.427L168.552 171.441L168.579 171.452L168.609 171.467L168.632 171.479L168.661 171.494L168.688 171.504L168.712 171.518L168.738 171.529L168.762 171.541L168.789 171.552L168.812 171.566L168.839 171.577L168.862 171.589L168.884 171.599L168.907 171.613L168.931 171.62L168.955 171.633L168.977 171.642L168.998 171.652L169.021 171.665L169.042 171.675L169.064 171.686L169.084 171.695L169.1 171.704L169.122 171.714L169.142 171.723L169.158 171.732L169.179 171.741L169.198 171.748L169.216 171.76L169.235 171.767L169.251 171.775L169.266 171.784L169.285 171.79L169.3 171.799L169.317 171.808L169.33 171.814L169.345 171.822L169.361 171.831L169.375 171.836L169.388 171.841L169.404 171.85L169.418 171.856L169.43 171.861L169.444 171.866L169.453 171.875L169.467 171.88L169.478 171.882L169.489 171.889L169.502 171.894L169.51 171.899L169.537 171.91L169.616 171.942L169.63 171.948L169.627 171.944Z" fill="#E51146"/>
<path d="M143.36 118.718L142.692 117.362C140.829 121.823 138.558 126.069 135.722 130.07C133.79 132.795 131.647 135.381 129.322 137.793C128.414 138.736 127.477 139.658 126.513 140.548C123.85 143.011 120.989 145.255 117.963 147.246L135.304 155.539C136.892 153.868 138.423 152.145 139.89 150.365C140.594 149.509 141.286 148.64 141.959 147.758C145.311 143.391 148.285 138.738 150.835 133.865L143.36 118.718Z" fill="#FBBC52"/>
<path d="M118.773 129.479C121.202 127.221 123.512 124.834 125.681 122.319C130.067 117.23 133.868 111.601 136.88 105.593L132.435 96.5923C124.056 104.973 114.484 112.162 104.123 117.934C96.1609 122.368 87.7303 125.966 79.0186 128.623L104.244 140.685C109.4 137.383 114.29 133.65 118.773 129.479Z" fill="#FBBC52"/>
<path d="M118.773 129.479L104.123 117.934C96.1609 122.368 87.7303 125.967 79.0186 128.623L104.244 140.685C109.4 137.383 114.29 133.65 118.773 129.479Z" fill="#EE7038"/>
<path d="M141.959 147.758L129.322 137.793C128.414 138.736 127.477 139.658 126.513 140.548C123.85 143.011 120.989 145.255 117.963 147.246L135.304 155.539C136.892 153.868 138.423 152.145 139.89 150.365C140.594 149.509 141.286 148.64 141.959 147.758Z" fill="#EE7038"/>
<path d="M70.4617 103.451C76.0154 102.226 81.1763 99.6493 86.0867 96.7835C98.142 89.7448 109.39 80.2308 116.571 68.464C116.352 66.8151 115.747 65.4437 114.719 64.4287C108.974 58.7537 92.2465 66.3775 77.3545 81.4576C69.8183 89.0871 64.1978 97.1645 61.23 104.02C64.3035 104.361 67.448 104.116 70.4617 103.451Z" fill="#34245A"/>
<path d="M70.3356 74.9101C69.2588 75.7443 69.8177 79.5853 70.8683 78.7716C73.3493 76.8511 75.8279 74.5614 76.5097 71.3674C77.1157 68.5266 76.2492 65.4457 73.7276 63.8194C70.1295 61.4994 65.4891 62.8655 61.6686 61.1073C59.1438 59.9453 56.9438 57.9297 55.5879 55.4741C59.4543 56.5493 63.4617 56.3325 66.8393 53.8589C73.2994 49.1279 71.0515 37.8758 62.4897 37.6148C55.744 37.41 52.5091 44.0204 52.3172 50.1778C50.4029 49.2965 48.6201 48.116 47.0556 46.7396C39.3261 39.9403 37.4114 29.417 38.1969 19.5806C38.2472 18.9385 38.3009 17.3999 37.497 17.1176C36.7107 16.8406 36.3145 17.906 36.2653 18.5165C35.4855 28.2784 36.6222 38.7922 42.8275 46.7647C45.1365 49.7297 48.7303 52.6668 52.6984 54.429C52.8119 54.9396 52.9525 55.4313 53.1163 55.8992C54.5967 60.1058 57.887 63.8582 62.1411 65.3874C65.0855 66.445 68.25 65.9312 71.2068 66.8093C73.2858 67.4268 75.2875 68.7093 73.9534 71.2792C73.2019 72.7286 71.5756 73.9497 70.3356 74.9101ZM59.0864 42.4205C62.0473 40.8987 67.1945 41.6924 68.4459 45.2564C69.3397 47.8022 66.5582 50.159 64.4964 51.0228C62.3161 51.9358 59.9006 52.048 57.5794 51.735C56.4415 51.5813 55.3197 51.3117 54.2285 50.9413C54.0813 47.4867 55.9334 44.0411 59.0864 42.4205Z" fill="#FBBC09"/>
<path d="M58.4893 88.0884C56.6983 85.2714 52.9146 83.1121 49.8169 82.0778C44.7209 80.3753 41.7354 86.549 38.2562 89.0333C33.2618 92.5981 27.2037 90.4937 23.8568 85.9012C21.0562 82.0573 17.1066 76.4573 11.6061 79.1633C9.8102 80.0476 10.3846 85.95 12.4055 84.956C17.9642 82.221 21.1435 90.261 24.1343 93.2748C27.3308 96.4946 32.0916 97.6317 36.4002 96.1635C38.5998 95.4137 40.2949 93.9345 41.8806 92.2848C43.4307 90.6708 45.5806 87.6816 48.0929 87.6878C49.5823 87.6919 51.284 88.8228 52.5211 89.5435C53.6852 90.2217 55.6224 91.167 56.3657 92.336C58.1837 95.1948 59.5317 89.7259 58.4893 88.0884Z" fill="#E61C56"/>
<path d="M93.3156 30.4407C92.6509 30.4604 92.1494 30.1969 91.6491 29.7822C90.6652 28.9652 90.0563 32.7636 91.1168 33.6438C92.8431 35.0767 95.2684 34.4288 96.3977 32.5608C97.5434 30.6661 97.3508 27.8684 96.2707 26.0012C93.1808 20.6609 85.9405 24.1195 82.6051 27.2739C78.7272 30.944 78.6473 37.1636 81.9524 41.2579C83.9077 43.6791 86.6796 44.8256 89.5348 45.8184C90.9062 46.2962 92.9624 46.8605 93.874 48.1028C95.8146 50.7473 93.4622 53.3082 91.3901 54.91C90.3121 55.7434 90.8718 59.5845 91.9223 58.7719C95.027 56.3725 97.1442 53.0223 96.6697 48.9646C96.1375 44.4225 92.8586 42.947 88.9635 41.5829C86.8279 40.8351 84.7345 39.8386 83.2233 38.0964C80.6903 35.1753 81.6744 32.1124 84.5702 29.9543C86.3845 28.6009 88.6218 27.3167 90.9299 27.2179C92.4436 27.1536 94.0362 27.4617 94.307 29.0659C94.489 30.1453 94.489 30.405 93.3156 30.4407Z" fill="#3EB6A4"/>
</svg>
