<svg width="187" height="187" viewBox="0 0 187 187" fill="none" xmlns="http://www.w3.org/2000/svg">
<path d="M186.323 93.1663C186.323 144.619 144.614 186.333 93.1617 186.333C41.7047 186.333 0 144.619 0 93.1663C0 41.7094 41.7047 0 93.1617 0C144.614 0 186.323 41.7094 186.323 93.1663Z" fill="#E5CB9F"/>
<path d="M184.072 93.1663C184.072 143.372 143.367 184.072 93.1615 184.072C42.9516 184.072 2.25098 143.372 2.25098 93.1663C2.25098 42.9564 42.9516 2.25577 93.1615 2.25577C143.367 2.25577 184.072 42.9564 184.072 93.1663Z" fill="#D3AA62"/>
<path d="M179.561 93.1663C179.561 140.882 140.877 179.565 93.1616 179.565C45.4459 179.565 6.7627 140.882 6.7627 93.1663C6.7627 45.4507 45.4459 6.76282 93.1616 6.76282C140.877 6.76282 179.561 45.4507 179.561 93.1663Z" fill="#C4882A"/>
<path d="M177.121 93.1663C177.121 139.534 139.529 177.121 93.1613 177.121C46.7936 177.121 9.20605 139.534 9.20605 93.1663C9.20605 46.7941 46.7936 9.20657 93.1613 9.20657C139.529 9.20657 177.121 46.7941 177.121 93.1663Z" fill="#008193"/>
<path fill-rule="evenodd" clip-rule="evenodd" d="M167.598 114.06C167.5 114.846 167.393 115.627 167.277 116.403C160.533 135.926 146.113 151.868 127.622 160.616C117.718 165.297 106.646 167.919 94.9587 167.919C88.4251 167.919 82.0795 167.099 76.0273 165.554C75.9632 165.541 75.9036 165.528 75.8486 165.512C75.6591 165.463 75.4726 165.413 75.2892 165.361C42.5756 156.682 18.4678 126.87 18.4678 91.4286C18.4678 66.0922 30.7875 43.6396 49.7555 29.7243C50.1498 29.4339 50.5472 29.1466 50.9477 28.8623C56.9677 24.6258 63.6204 21.2329 70.7363 18.8579C72.0048 18.6806 73.281 18.5309 74.5648 18.4086C74.0023 18.7846 73.4446 19.1697 72.8913 19.564C65.1702 25.0751 58.6596 32.1727 53.8454 40.3843C53.1576 41.555 52.5035 42.7501 51.883 43.9697C47.564 52.4886 45.001 62.0528 44.6755 72.181C44.6541 72.9054 44.6433 73.6313 44.6433 74.3588C44.6433 74.9426 44.651 75.5249 44.6663 76.1057C44.6724 76.2952 44.6801 76.4832 44.6892 76.6696C44.6984 77.0609 44.7136 77.4506 44.735 77.8388C44.7442 78.0528 44.7564 78.2667 44.7717 78.4807C44.7931 78.8445 44.816 79.2051 44.8405 79.5628C44.8588 79.7737 44.8772 79.983 44.8955 80.1909C44.9292 80.5546 44.9628 80.9169 44.9964 81.2775C45.0178 81.4793 45.0407 81.681 45.0651 81.8827C45.1049 82.2495 45.1477 82.6163 45.1935 82.9831C45.221 83.1757 45.2471 83.3698 45.2715 83.5654C45.3204 83.9353 45.3739 84.3036 45.4319 84.6704C45.4594 84.8507 45.4885 85.0326 45.519 85.216C45.5802 85.595 45.6429 85.9725 45.7071 86.3485C45.7407 86.5227 45.7743 86.6954 45.8079 86.8666C45.8782 87.2487 45.9516 87.6292 46.028 88.0083C46.0647 88.1733 46.1014 88.3353 46.138 88.4943C46.2175 88.8824 46.3031 89.2706 46.3948 89.6588C46.4284 89.8086 46.4651 89.9584 46.5049 90.1082C46.5966 90.5055 46.6928 90.8998 46.7937 91.2911C46.8303 91.4286 46.8685 91.5662 46.9083 91.7037C47.0122 92.1072 47.1207 92.5107 47.2338 92.9142C47.2735 93.0364 47.3103 93.1572 47.3439 93.2764C47.4662 93.6921 47.5899 94.1047 47.7152 94.5143C47.7519 94.6274 47.7886 94.739 47.8253 94.849C47.9567 95.2678 48.0943 95.6865 48.238 96.1053C48.2716 96.2031 48.3052 96.2994 48.3388 96.3941C48.4886 96.8251 48.6414 97.2515 48.7973 97.6733C48.831 97.7589 48.863 97.8445 48.8936 97.9301C49.0587 98.3672 49.2253 98.7997 49.3934 99.2276C49.4209 99.301 49.4515 99.3744 49.4851 99.4477C49.6593 99.8909 49.8396 100.328 50.0261 100.759C50.0536 100.826 50.0811 100.89 50.1086 100.952C50.3011 101.398 50.4968 101.84 50.6955 102.277C50.7199 102.332 50.7444 102.385 50.7689 102.437C50.9767 102.886 51.1876 103.333 51.4016 103.776C51.423 103.816 51.4444 103.857 51.4658 103.9C51.6859 104.352 51.9121 104.803 52.1444 105.252C52.1597 105.283 52.1764 105.315 52.1947 105.349C52.4332 105.804 52.6747 106.256 52.9192 106.706C52.9345 106.73 52.9483 106.756 52.9605 106.784C53.2142 107.239 53.4709 107.691 53.7308 108.141C53.743 108.156 53.7537 108.173 53.7629 108.191C54.0288 108.647 54.3007 109.101 54.5789 109.553C54.585 109.562 54.5896 109.571 54.5927 109.58C54.8769 110.039 55.1659 110.493 55.4593 110.942C55.4593 110.945 55.4593 110.948 55.4593 110.951C58.1369 115.069 61.2501 118.874 64.7392 122.304C64.7392 122.065 64.9364 121.868 65.1794 121.868H66.1743V119.663H65.1794C64.9364 119.663 64.7346 119.461 64.7346 119.218C64.7346 118.975 64.9364 118.778 65.1794 118.778H66.1743V94.3997H65.1794C64.9364 94.3997 64.7346 94.1979 64.7346 93.9595C64.7346 93.7165 64.9364 93.5194 65.1794 93.5194H66.1743V91.3094H65.1794C64.9364 91.3094 64.7346 91.1123 64.7346 90.8693C64.7346 90.6263 64.9364 90.4291 65.1794 90.4291H66.1743V66.0509H65.1794C64.9364 66.0509 64.7346 65.8491 64.7346 65.6061C64.7346 65.3631 64.9364 65.166 65.1794 65.166H66.1743V62.9606H65.1794C64.9364 62.9606 64.7346 62.7635 64.7346 62.5205C64.7346 62.2775 64.9364 62.0757 65.1794 62.0757H65.9634C65.1152 60.3197 64.9684 59.1689 66.0413 57.7246C67.1829 56.1886 68.8336 56.8122 70.1082 54.2446C71.3828 56.8122 73.0334 56.1886 74.175 57.7246C75.2479 59.1689 75.1012 60.3197 74.253 62.0757H75.037C75.28 62.0757 75.4818 62.2775 75.4818 62.5205C75.4818 62.7635 75.28 62.9606 75.037 62.9606H74.0467V65.166H75.037C75.28 65.166 75.4818 65.3631 75.4818 65.6061C75.4818 65.8491 75.28 66.0509 75.037 66.0509H74.0467V90.4291H75.037C75.28 90.4291 75.4818 90.6263 75.4818 90.8693C75.4818 91.1123 75.28 91.3094 75.037 91.3094H74.0467V93.5194H75.037C75.28 93.5194 75.4818 93.7165 75.4818 93.9595C75.4818 94.1979 75.28 94.3997 75.037 94.3997H74.0467V107.655H83.6155V104.936C83.6185 104.19 83.6751 103.458 83.7852 102.74C83.666 102.449 83.5299 102.154 83.377 101.855C77.1644 89.6405 75.6789 82.1578 82.7856 72.5844C89.8923 63.0156 100.172 66.8854 108.122 50.916C116.072 66.8854 126.347 63.0156 133.454 72.5844C140.565 82.1578 139.075 89.6405 132.867 101.855C132.714 102.154 132.577 102.449 132.454 102.74C132.568 103.458 132.624 104.19 132.624 104.936V107.655H141.308V94.3997H140.308C140.07 94.3997 139.868 94.1979 139.868 93.9595C139.868 93.7165 140.07 93.5194 140.308 93.5194H141.308V91.3094H140.308C140.07 91.3094 139.868 91.1123 139.868 90.8693C139.868 90.6263 140.07 90.4291 140.308 90.4291H141.308V66.0509H140.308C140.07 66.0509 139.868 65.8491 139.868 65.6061C139.868 65.3631 140.07 65.166 140.308 65.166H141.308V62.9606H140.308C140.07 62.9606 139.868 62.7635 139.868 62.5205C139.868 62.2775 140.07 62.0757 140.308 62.0757H141.102C140.249 60.3197 140.102 59.1689 141.175 57.7246C142.312 56.1886 143.963 56.8122 145.242 54.2446C146.521 56.8122 148.167 56.1886 149.309 57.7246C150.382 59.1689 150.235 60.3197 149.387 62.0757H150.171C150.414 62.0757 150.616 62.2775 150.616 62.5205C150.616 62.7635 150.414 62.9606 150.171 62.9606H149.176V65.166H150.171C150.414 65.166 150.616 65.3631 150.616 65.6061C150.616 65.8491 150.414 66.0509 150.171 66.0509H149.176V90.4291H150.171C150.414 90.4291 150.616 90.6263 150.616 90.8693C150.616 91.1123 150.414 91.3094 150.171 91.3094H149.176V93.5194H150.171C150.414 93.5194 150.616 93.7165 150.616 93.9595C150.616 94.1979 150.414 94.3997 150.171 94.3997H149.176V118.778H150.171C150.414 118.778 150.616 118.975 150.616 119.218C150.616 119.461 150.414 119.663 150.171 119.663H149.176V121.868H150.171C150.414 121.868 150.616 122.065 150.616 122.308C150.616 122.551 150.414 122.748 150.171 122.748H149.176V130.346C152.33 128.246 155.297 125.88 158.048 123.289C158.149 123.192 158.251 123.094 158.355 122.996C158.654 122.709 158.952 122.418 159.249 122.125C159.393 121.981 159.535 121.838 159.675 121.694C159.95 121.419 160.221 121.142 160.487 120.864C160.658 120.687 160.826 120.508 160.991 120.328C161.236 120.071 161.479 119.811 161.72 119.548C162.099 119.129 162.475 118.706 162.848 118.278C163.013 118.083 163.177 117.887 163.339 117.691C163.58 117.404 163.822 117.117 164.063 116.829C164.222 116.631 164.381 116.43 164.54 116.229C164.781 115.929 165.018 115.627 165.251 115.321C165.397 115.131 165.543 114.94 165.686 114.748C165.943 114.408 166.197 114.065 166.447 113.716C166.563 113.56 166.678 113.403 166.791 113.244C167.152 112.733 167.506 112.218 167.855 111.699C167.782 112.49 167.696 113.277 167.598 114.06ZM65.1977 122.748C65.5187 123.06 65.8442 123.369 66.1743 123.675V122.748H65.1977Z" fill="#D3AA62"/>
<path d="M150.171 66.0509C150.414 66.0509 150.616 65.8491 150.616 65.6061C150.616 65.3631 150.414 65.166 150.171 65.166H149.176V62.9606H150.171C150.414 62.9606 150.616 62.7635 150.616 62.5204C150.616 62.2774 150.414 62.0757 150.171 62.0757H149.387C150.236 60.3197 150.382 59.1688 149.309 57.7246C148.168 56.1886 146.522 56.8122 145.243 54.2446C143.963 56.8122 142.313 56.1886 141.176 57.7246C140.103 59.1688 140.25 60.3197 141.102 62.0757H140.309C140.071 62.0757 139.869 62.2774 139.869 62.5204C139.869 62.7635 140.071 62.9606 140.309 62.9606H141.309V65.166H140.309C140.071 65.166 139.869 65.3631 139.869 65.6061C139.869 65.8491 140.071 66.0509 140.309 66.0509H141.309V90.4291H140.309C140.071 90.4291 139.869 90.6262 139.869 90.8692C139.869 91.1122 140.071 91.3094 140.309 91.3094H141.309V93.5193H140.309C140.071 93.5193 139.869 93.7165 139.869 93.9595C139.869 94.1979 140.071 94.3997 140.309 94.3997H141.309V107.655H132.629V104.936C132.626 104.19 132.568 103.458 132.455 102.74C132.577 102.449 132.715 102.154 132.868 101.855C139.076 89.6405 140.566 82.1578 133.455 72.5844C126.348 63.0156 116.078 66.8853 108.123 50.9159C100.172 66.8853 89.893 63.0156 82.7909 72.5844C75.6796 82.1578 77.1651 89.6405 83.3777 101.855C83.5306 102.154 83.6667 102.449 83.7859 102.74C83.6758 103.458 83.6192 104.19 83.6162 104.936V107.655H74.0474V94.3997H75.0377C75.2807 94.3997 75.4825 94.1979 75.4825 93.9595C75.4825 93.7165 75.2807 93.5193 75.0377 93.5193H74.0474V91.3094H75.0377C75.2807 91.3094 75.4825 91.1122 75.4825 90.8692C75.4825 90.6262 75.2807 90.4291 75.0377 90.4291H74.0474V66.0509H75.0377C75.2807 66.0509 75.4825 65.8537 75.4825 65.6061C75.4825 65.3631 75.2807 65.166 75.0377 65.166H74.0474V62.9606H75.0377C75.2807 62.9606 75.4825 62.7635 75.4825 62.5204C75.4825 62.2774 75.2807 62.0757 75.0377 62.0757H74.2537C75.1019 60.3197 75.2486 59.1688 74.1757 57.7246C73.0341 56.1886 71.3835 56.8122 70.1089 54.2446C68.8343 56.8122 67.1837 56.1886 66.042 57.7246C64.9691 59.1688 65.1159 60.3197 65.9641 62.0757H65.1801C64.9371 62.0757 64.7354 62.2774 64.7354 62.5204C64.7354 62.7635 64.9371 62.9606 65.1801 62.9606H66.175V65.166H65.1801C64.9371 65.166 64.7354 65.3631 64.7354 65.6061C64.7354 65.8537 64.9371 66.0509 65.1801 66.0509H66.175V90.4291H65.1801C64.9371 90.4291 64.7354 90.6262 64.7354 90.8692C64.7354 91.1122 64.9371 91.3094 65.1801 91.3094H66.175V93.5193H65.1801C64.9371 93.5193 64.7354 93.7165 64.7354 93.9595C64.7354 94.1979 64.9371 94.3997 65.1801 94.3997H66.175V118.778H65.1801C64.9371 118.778 64.7354 118.975 64.7354 119.218C64.7354 119.461 64.9371 119.663 65.1801 119.663H66.175V121.868H65.1801C64.9371 121.868 64.7399 122.065 64.7399 122.304C64.8897 122.453 65.0395 122.602 65.1893 122.748H66.175V123.679C68.6356 125.962 71.2598 128.055 74.0474 129.956C77.0689 132.019 80.2692 133.844 83.6162 135.398C92.2176 139.387 101.8 141.62 111.905 141.62C119.136 141.62 126.1 140.478 132.629 138.365C135.622 137.393 138.515 136.225 141.309 134.862C144.041 133.532 146.664 132.03 149.176 130.355V122.748H150.171C150.414 122.748 150.616 122.551 150.616 122.308C150.616 122.065 150.414 121.868 150.171 121.868H149.176V119.663H150.171C150.414 119.663 150.616 119.461 150.616 119.218C150.616 118.975 150.414 118.778 150.171 118.778H149.176V94.3997H150.171C150.414 94.3997 150.616 94.1979 150.616 93.9595C150.616 93.7165 150.414 93.5193 150.171 93.5193H149.176V91.3094H150.171C150.414 91.3094 150.616 91.1122 150.616 90.8692C150.616 90.6262 150.414 90.4291 150.171 90.4291H149.176V66.0509H150.171Z" fill="#DBB87D"/>
<path d="M141.308 134.862V122.748H140.309C140.07 122.748 139.869 122.551 139.869 122.308C139.869 122.065 140.07 121.868 140.309 121.868H141.308V119.663H140.309C140.07 119.663 139.869 119.461 139.869 119.218C139.869 118.975 140.07 118.778 140.309 118.778H141.308V107.655H132.629V138.365C135.621 137.393 138.515 136.225 141.308 134.862Z" fill="#D29D5E"/>
<path d="M74.0469 118.778H75.0372C75.2802 118.778 75.4819 118.975 75.4819 119.218C75.4819 119.461 75.2802 119.663 75.0372 119.663H74.0469V121.868H75.0372C75.2802 121.868 75.4819 122.065 75.4819 122.308C75.4819 122.551 75.2802 122.748 75.0372 122.748H74.0469V129.956C77.0684 132.019 80.2686 133.844 83.6156 135.398V107.655H74.0469V118.778Z" fill="#D29D5E"/>
<path d="M74.0469 107.655V118.778H75.0372C75.2802 118.778 75.4819 118.975 75.4819 119.218C75.4819 119.461 75.2802 119.663 75.0372 119.663H74.0469V121.868H75.0372C75.2802 121.868 75.4819 122.065 75.4819 122.308C75.4819 122.551 75.2802 122.748 75.0372 122.748H74.0469V129.956C74.973 130.592 75.9175 131.203 76.8803 131.79V122.748H77.8752C78.1182 122.748 78.32 122.551 78.32 122.308C78.32 122.065 78.1182 121.868 77.8752 121.868H76.8803V119.663H77.8752C78.1182 119.663 78.32 119.461 78.32 119.218C78.32 118.975 78.1182 118.778 77.8752 118.778H76.8803V107.655H74.0469Z" fill="#D1915B"/>
<path d="M83.6157 107.655H132.624V105.449H83.6157V107.655Z" fill="#C4882A"/>
<path d="M108.122 50.9159C107.765 51.6281 107.406 52.3006 107.045 52.9333C112.969 57.9355 116.747 65.519 116.747 74.0103C116.747 89.0582 104.89 101.259 90.2547 101.259C87.5541 101.259 84.9453 100.842 82.4878 100.067C82.7721 100.654 83.0685 101.25 83.3772 101.855C83.5301 102.154 83.6662 102.449 83.7854 102.74C83.6753 103.458 83.6187 104.19 83.6157 104.936V105.009H132.629V104.936C132.626 104.19 132.568 103.458 132.455 102.74C132.577 102.449 132.714 102.154 132.867 101.855C139.075 89.6405 140.565 82.1578 133.454 72.5844C126.347 63.0156 116.077 66.8853 108.122 50.9159Z" fill="#D3AA62"/>
<path d="M150.171 66.0509C150.414 66.0509 150.616 65.8491 150.616 65.6061C150.616 65.3631 150.414 65.166 150.171 65.166H149.176V62.9606H150.171C150.414 62.9606 150.616 62.7635 150.616 62.5205C150.616 62.2775 150.414 62.0757 150.171 62.0757H149.387C150.235 60.3197 150.382 59.1689 149.309 57.7246C148.218 56.2482 146.65 56.7618 145.398 54.5426C145.361 55.909 146.283 56.7663 146.993 57.7246C148.066 59.1689 147.92 60.3197 147.071 62.0757H140.309C140.07 62.0757 139.873 62.2775 139.873 62.5205C139.873 62.7635 140.07 62.9606 140.309 62.9606H147.026L146.906 65.166H140.309C140.07 65.166 139.873 65.3631 139.873 65.6061C139.873 65.8491 140.07 66.0509 140.309 66.0509H146.861V90.4291H140.309C140.07 90.4291 139.873 90.6263 139.873 90.8693C139.873 91.1123 140.07 91.3094 140.309 91.3094H146.861V93.5194H140.309C140.07 93.5194 139.873 93.7165 139.873 93.9595C139.873 94.1979 140.07 94.3997 140.309 94.3997H146.861V118.778H140.309C140.07 118.778 139.873 118.975 139.873 119.218C139.873 119.461 140.07 119.663 140.309 119.663H146.861V121.868H140.309C140.07 121.868 139.873 122.065 139.873 122.308C139.873 122.551 140.07 122.748 140.309 122.748H146.861V131.827C147.643 131.353 148.415 130.862 149.176 130.355V122.748H150.171C150.414 122.748 150.616 122.551 150.616 122.308C150.61 122.198 150.571 122.104 150.501 122.024C150.419 121.928 150.304 121.868 150.171 121.868H149.176V119.663H150.171C150.414 119.663 150.616 119.461 150.616 119.218C150.616 118.975 150.414 118.778 150.171 118.778H149.176V94.3997H150.171C150.414 94.3997 150.616 94.1979 150.616 93.9595C150.61 93.8495 150.571 93.7547 150.501 93.6752C150.419 93.579 150.304 93.5148 150.171 93.5148H149.176V91.3094H150.171C150.232 91.3094 150.29 91.2987 150.345 91.2773C150.501 91.2085 150.616 91.0527 150.616 90.8693C150.616 90.6263 150.414 90.4291 150.171 90.4291H149.176V66.0509H150.171Z" fill="#D3AA62"/>
<path d="M75.0371 62.9606C75.2801 62.9606 75.4818 62.7635 75.4818 62.5205C75.4818 62.2775 75.2801 62.0757 75.0371 62.0757H74.253C75.1013 60.3197 75.2479 59.1689 74.175 57.7246C73.0792 56.2482 71.5204 56.7618 70.2642 54.5426C70.2321 55.909 71.149 56.7663 71.8597 57.7246C72.9326 59.1689 72.7858 60.3197 71.9376 62.0757H65.1794C64.9364 62.0757 64.7393 62.2775 64.7393 62.5205C64.7393 62.7635 64.9364 62.9606 65.1794 62.9606H71.8917L71.7725 65.166H65.1794C64.9364 65.166 64.7393 65.3631 64.7393 65.6061C64.7393 65.8491 64.9364 66.0509 65.1794 66.0509H71.7267V90.4291H65.1794C64.9364 90.4291 64.7393 90.6262 64.7393 90.8693C64.7393 91.1123 64.9364 91.3094 65.1794 91.3094H71.7267V93.5194H65.1794C64.9364 93.5194 64.7393 93.7165 64.7393 93.9595C64.7393 94.1979 64.9364 94.3997 65.1794 94.3997H71.7267V118.778H65.1794C64.9364 118.778 64.7393 118.975 64.7393 119.218C64.7393 119.461 64.9364 119.663 65.1794 119.663H71.7267V121.868H65.1794C64.9364 121.868 64.7393 122.065 64.7393 122.308C64.7393 122.551 64.9364 122.748 65.1794 122.748H71.7267V128.305C72.4878 128.871 73.2612 129.421 74.0467 129.956V122.748H75.0371C75.2801 122.748 75.4818 122.551 75.4818 122.308C75.4818 122.065 75.2801 121.868 75.0371 121.868H74.0467V119.663H75.0371C75.2801 119.663 75.4818 119.461 75.4818 119.218C75.4818 118.975 75.2801 118.778 75.0371 118.778H74.0467V94.3997H75.0371C75.2801 94.3997 75.4818 94.1979 75.4818 93.9595C75.4818 93.7165 75.2801 93.5194 75.0371 93.5194H74.0467V91.3094H75.0371C75.2801 91.3094 75.4818 91.1123 75.4818 90.8693C75.4818 90.6262 75.2801 90.4291 75.0371 90.4291H74.0467V66.0509H75.0371C75.1624 66.0448 75.2663 66.0005 75.3488 65.9179C75.4008 65.8629 75.4374 65.7972 75.4588 65.7208C75.4711 65.6841 75.4787 65.6459 75.4818 65.6061C75.4818 65.464 75.4085 65.3448 75.303 65.2623C75.2297 65.2011 75.141 65.169 75.0371 65.166H74.0467V62.9606H75.0371Z" fill="#D3AA62"/>
<path d="M83.6157 109.2H132.624V108.32H83.6157V109.2Z" fill="#C4882A"/>
<path d="M111.905 141.62C112.779 141.62 113.65 141.602 114.519 141.565V132.326C114.519 131.024 113.872 129.869 112.886 129.167C112.801 129.106 112.712 129.05 112.62 128.998C112.507 128.93 112.402 128.851 112.304 128.759C111.928 128.388 111.589 127.751 112.043 126.815C113.028 124.793 113.262 123.551 112.139 121.964C111.011 120.373 109.383 121.015 108.123 118.37C106.862 121.015 105.234 120.373 104.106 121.964C102.978 123.551 103.217 124.793 104.198 126.815C104.652 127.751 104.313 128.388 103.937 128.759C103.842 128.851 103.736 128.93 103.62 128.998C103.532 129.05 103.444 129.106 103.359 129.167C102.368 129.869 101.727 131.024 101.727 132.326V140.854C105.046 141.359 108.448 141.62 111.905 141.62Z" fill="#A36620"/>
<path d="M103.473 86.9675C106.247 80.7869 104.018 73.7628 98.4888 71.2823C92.9639 68.7973 86.2287 71.7912 83.4502 77.9718C80.6763 84.1523 82.9045 91.1765 88.4294 93.6615C93.9589 96.1466 100.694 93.148 103.473 86.9675Z" fill="#E5CB9F"/>
<path d="M108.342 68.9394C109.282 66.8532 108.53 64.4782 106.664 63.6438C104.798 62.8001 102.519 63.8134 101.584 65.8996C100.648 67.9903 101.4 70.3607 103.266 71.1998C105.132 72.0388 107.407 71.0255 108.342 68.9394Z" fill="#E5CB9F"/>
<path d="M90.9884 112.877H85.1426V110.818H90.9884V112.877Z" fill="#C4882A"/>
<path d="M98.8051 112.877H92.9639V110.818H98.8051V112.877Z" fill="#C4882A"/>
<path d="M106.622 112.877H100.781V110.818H106.622V112.877Z" fill="#C4882A"/>
<path d="M114.44 112.877H108.594V110.818H114.44V112.877Z" fill="#C4882A"/>
<path d="M122.262 112.877H116.417V110.818H122.262V112.877Z" fill="#C4882A"/>
<path d="M130.08 112.877H124.234V110.818H130.08V112.877Z" fill="#C4882A"/>
<path d="M150.171 65.166H140.309C140.07 65.166 139.873 65.3632 139.873 65.6062C139.873 65.8492 140.07 66.0509 140.309 66.0509H150.171C150.414 66.0509 150.616 65.8492 150.616 65.6062C150.616 65.3632 150.414 65.166 150.171 65.166Z" fill="#C4882A"/>
<path d="M150.171 62.0757H140.309C140.07 62.0757 139.873 62.2775 139.873 62.5205C139.873 62.7635 140.07 62.9606 140.309 62.9606H150.171C150.414 62.9606 150.616 62.7635 150.616 62.5205C150.616 62.2775 150.414 62.0757 150.171 62.0757Z" fill="#C4882A"/>
<path d="M150.171 93.5194H140.309C140.07 93.5194 139.873 93.7165 139.873 93.9595C139.873 94.1979 140.07 94.3997 140.309 94.3997H150.171C150.414 94.3997 150.616 94.1979 150.616 93.9595C150.616 93.7165 150.414 93.5194 150.171 93.5194Z" fill="#C4882A"/>
<path d="M150.171 90.429H140.309C140.07 90.429 139.873 90.6262 139.873 90.8692C139.873 91.1122 140.07 91.3094 140.309 91.3094H150.171C150.414 91.3094 150.616 91.1122 150.616 90.8692C150.616 90.6262 150.414 90.429 150.171 90.429Z" fill="#C4882A"/>
<path d="M150.171 121.868H140.309C140.07 121.868 139.873 122.065 139.873 122.308C139.873 122.551 140.07 122.748 140.309 122.748H150.171C150.414 122.748 150.616 122.551 150.616 122.308C150.616 122.065 150.414 121.868 150.171 121.868Z" fill="#C4882A"/>
<path d="M150.171 118.778H140.309C140.07 118.778 139.873 118.975 139.873 119.218C139.873 119.461 140.07 119.663 140.309 119.663H150.171C150.414 119.663 150.616 119.461 150.616 119.218C150.616 118.975 150.414 118.778 150.171 118.778Z" fill="#C4882A"/>
<path d="M144.637 59.1138C144.953 58.4123 144.701 57.6146 144.073 57.3303C143.445 57.0506 142.684 57.3899 142.367 58.0914C142.051 58.7929 142.303 59.5907 142.931 59.8749C143.56 60.1546 144.325 59.8153 144.637 59.1138Z" fill="#E5CB9F"/>
<path d="M145.191 57.0684C145.301 56.8302 145.209 56.5599 144.998 56.4637C144.788 56.3721 144.531 56.4866 144.426 56.7202C144.316 56.9585 144.403 57.2288 144.613 57.3204C144.829 57.4212 145.085 57.3021 145.191 57.0684Z" fill="#E5CB9F"/>
<path d="M145.773 69.1549C145.374 68.6001 144.81 68.8248 144.365 67.8986C143.925 68.8248 143.352 68.6001 142.958 69.1549C142.568 69.7143 142.646 70.1453 142.995 70.8559V74.2717H145.741V70.8559C146.085 70.1453 146.167 69.7143 145.773 69.1549Z" fill="#7B4C0F"/>
<path d="M143.586 69.1549C143.893 68.7239 144.301 68.7606 144.677 68.3709C144.57 68.2578 144.466 68.1004 144.365 67.8986C143.925 68.8248 143.352 68.6001 142.958 69.1549C142.568 69.7143 142.646 70.1453 142.995 70.8559V74.2717H143.618V70.8559C143.274 70.1453 143.192 69.7143 143.586 69.1549Z" fill="#C4882A"/>
<path d="M145.773 97.7192C145.374 97.1644 144.81 97.3891 144.365 96.4629C143.925 97.3891 143.352 97.1644 142.958 97.7192C142.568 98.2739 142.646 98.7095 142.995 99.4202V102.836H145.741V99.4202C146.085 98.7095 146.167 98.2739 145.773 97.7192Z" fill="#7B4C0F"/>
<path d="M143.586 97.7192C143.893 97.2882 144.301 97.3249 144.677 96.9306C144.57 96.8205 144.466 96.6646 144.365 96.4629C143.925 97.3891 143.352 97.1644 142.958 97.7192C142.568 98.2739 142.646 98.7095 142.995 99.4202V102.836H143.618V99.4202C143.274 98.7095 143.192 98.2739 143.586 97.7192Z" fill="#C4882A"/>
<path d="M75.0371 65.166H65.1794C64.9364 65.166 64.7393 65.3632 64.7393 65.6062C64.7393 65.8492 64.9364 66.0509 65.1794 66.0509H75.0371C75.2801 66.0509 75.4818 65.8492 75.4818 65.6062C75.4818 65.3632 75.2801 65.166 75.0371 65.166Z" fill="#C4882A"/>
<path d="M75.0371 62.0757H65.1794C64.9364 62.0757 64.7393 62.2775 64.7393 62.5205C64.7393 62.7635 64.9364 62.9606 65.1794 62.9606H75.0371C75.2801 62.9606 75.4818 62.7635 75.4818 62.5205C75.4818 62.2775 75.2801 62.0757 75.0371 62.0757Z" fill="#C4882A"/>
<path d="M75.0371 93.5194H65.1794C64.9364 93.5194 64.7393 93.7165 64.7393 93.9595C64.7393 94.1979 64.9364 94.3997 65.1794 94.3997H75.0371C75.2801 94.3997 75.4818 94.1979 75.4818 93.9595C75.4818 93.7165 75.2801 93.5194 75.0371 93.5194Z" fill="#C4882A"/>
<path d="M75.0371 90.429H65.1794C64.9364 90.429 64.7393 90.6262 64.7393 90.8692C64.7393 91.1122 64.9364 91.3094 65.1794 91.3094H75.0371C75.2801 91.3094 75.4818 91.1122 75.4818 90.8692C75.4818 90.6262 75.2801 90.429 75.0371 90.429Z" fill="#C4882A"/>
<path d="M75.0371 121.868H65.1794C64.9364 121.868 64.7393 122.065 64.7393 122.308C64.7393 122.551 64.9364 122.748 65.1794 122.748H75.0371C75.2801 122.748 75.4818 122.551 75.4818 122.308C75.4818 122.065 75.2801 121.868 75.0371 121.868Z" fill="#C4882A"/>
<path d="M75.0371 118.778H65.1794C64.9364 118.778 64.7393 118.975 64.7393 119.218C64.7393 119.461 64.9364 119.663 65.1794 119.663H75.0371C75.2801 119.663 75.4818 119.461 75.4818 119.218C75.4818 118.975 75.2801 118.778 75.0371 118.778Z" fill="#C4882A"/>
<path d="M69.5029 59.1138C69.8192 58.4123 69.5671 57.6146 68.9389 57.3303C68.3154 57.0506 67.5497 57.3899 67.2333 58.0914C66.917 58.7929 67.1737 59.5907 67.7973 59.8749C68.4254 60.1546 69.1911 59.8153 69.5029 59.1138Z" fill="#E5CB9F"/>
<path d="M70.0566 57.0684C70.1619 56.8302 70.0795 56.5599 69.8688 56.4637C69.6581 56.3721 69.3969 56.4866 69.2916 56.7202C69.1816 56.9585 69.2732 57.2288 69.4793 57.3204C69.6947 57.4212 69.9512 57.3021 70.0566 57.0684Z" fill="#E5CB9F"/>
<path d="M70.6398 69.1549C70.2455 68.6001 69.6725 68.8248 69.2323 67.8986C68.7922 68.8248 68.2236 68.6001 67.8293 69.1549C67.435 69.7143 67.5176 70.1453 67.8614 70.8559V74.2717H70.6078V70.8559C70.9517 70.1453 71.0341 69.7143 70.6398 69.1549Z" fill="#7B4C0F"/>
<path d="M68.4528 69.1549C68.76 68.7239 69.1681 68.7606 69.5441 68.3709C69.4371 68.2578 69.3332 68.1004 69.2323 67.8986C68.7922 68.8248 68.2236 68.6001 67.8293 69.1549C67.435 69.7143 67.5176 70.1453 67.8614 70.8559V74.2717H68.4849V70.8559C68.1411 70.1453 68.0585 69.7143 68.4528 69.1549Z" fill="#C4882A"/>
<path d="M70.6398 97.7192C70.2455 97.1644 69.6725 97.3891 69.2323 96.4629C68.7922 97.3891 68.2236 97.1644 67.8293 97.7192C67.435 98.2739 67.5176 98.7095 67.8614 99.4202V102.836H70.6078V99.4202C70.9517 98.7095 71.0341 98.2739 70.6398 97.7192Z" fill="#7B4C0F"/>
<path d="M68.4528 97.7192C68.76 97.2882 69.1681 97.3249 69.5441 96.9306C69.4371 96.8205 69.3332 96.6646 69.2323 96.4629C68.7922 97.3891 68.2236 97.1644 67.8293 97.7192C67.435 98.2739 67.5176 98.7095 67.8614 99.4202V102.836H68.4849V99.4202C68.1411 98.7095 68.0585 98.2739 68.4528 97.7192Z" fill="#C4882A"/>
<path d="M111.905 141.62C112.137 141.62 112.369 141.617 112.602 141.611V133.39C112.602 132.157 112.148 131.066 111.46 130.405C111.399 130.347 111.336 130.292 111.272 130.24C111.193 130.176 111.119 130.101 111.052 130.016C110.791 129.663 110.552 129.067 110.868 128.182C111.556 126.265 111.726 125.091 110.933 123.592C110.144 122.088 109.007 122.698 108.122 120.19C107.237 122.698 106.1 122.088 105.307 123.592C104.518 125.091 104.683 126.265 105.376 128.182C105.692 129.067 105.454 129.663 105.192 130.016C105.122 130.101 105.047 130.176 104.968 130.24C104.904 130.292 104.842 130.347 104.784 130.405C104.092 131.066 103.643 132.157 103.643 133.39V141.116C106.351 141.452 109.105 141.62 111.905 141.62Z" fill="#7B4C0F"/>
<path d="M111.905 141.62C74.7576 141.62 44.6436 111.506 44.6436 74.3588C44.6436 51.9659 55.5926 32.136 72.4239 19.9079C46.8995 30.9485 29.041 56.3491 29.041 85.9267C29.041 125.637 61.232 157.833 100.942 157.833C131.267 157.833 157.204 139.053 167.773 112.492C167.8 112.229 167.828 111.965 167.855 111.699C155.792 129.741 135.238 141.62 111.905 141.62Z" fill="#DDBD85"/>
<path d="M111.905 141.62C74.7578 141.62 44.6438 111.506 44.6438 74.3588C44.6438 51.9659 55.5927 32.136 72.4241 19.9079C70.7124 20.6537 69.0374 21.4607 67.399 22.3288C48.3852 35.0016 35.8086 56.9131 35.8086 81.8415C35.8086 121.07 66.9313 152.867 105.326 152.867C131.51 152.867 154.307 138.067 166.154 116.21C166.729 114.991 167.269 113.751 167.773 112.492C167.8 112.229 167.828 111.965 167.855 111.699C155.792 129.741 135.238 141.62 111.905 141.62Z" fill="#E5CB9F"/>
</svg>
